<svg width="407" height="119" viewBox="0 0 407 119" fill="none" xmlns="http://www.w3.org/2000/svg">
<path d="M0.41398 81.1984C0.41398 75.3408 0.298985 70.402 0 66.0146H11.1085L11.6374 73.572H11.9594C14.4663 69.5981 19.0891 64.8661 27.6906 64.8661C34.4063 64.8661 39.6501 68.6333 41.835 74.2841H42.0419C43.8129 71.4587 45.9058 69.3684 48.3206 67.8982C51.1495 65.8997 54.4153 64.8431 58.6011 64.8431C67.0877 64.8431 75.6893 70.6088 75.6893 86.9411V116.987H63.1089V88.8247C63.1089 80.3484 60.1651 75.3178 53.9784 75.3178C49.5856 75.3178 46.3197 78.4648 44.9628 82.1172C44.6408 83.3576 44.3418 84.9426 44.3418 86.3898V116.964H31.7614V87.4235C31.7614 80.3255 28.9326 75.2949 22.9529 75.2949C18.1461 75.2949 14.8803 79.0621 13.7303 82.6226C13.2014 83.9089 12.9944 85.3791 12.9944 86.8492V117.01H0.41398V81.1984Z" fill="white"/>
<path d="M124.687 104.762C124.687 109.356 124.894 113.858 125.423 117.005H113.786L112.958 111.354H112.636C109.485 115.328 104.149 118.154 97.5483 118.154C87.2678 118.154 81.4951 110.734 81.4951 102.97C81.4951 90.0831 92.9026 83.6053 111.785 83.6972V82.8703C111.785 79.5165 110.405 73.9575 101.412 73.9575C96.3754 73.9575 91.1316 75.5425 87.6818 77.7248L85.1749 69.3404C88.9468 67.0433 95.5474 64.8381 103.62 64.8381C119.972 64.8381 124.71 75.2209 124.71 86.3159V104.762H124.687ZM112.107 92.1046C102.976 91.8978 94.2825 93.8733 94.2825 101.615C94.2825 106.645 97.5483 108.942 101.619 108.942C106.748 108.942 110.52 105.588 111.67 101.913C111.992 100.971 112.084 99.9376 112.084 99.0877V92.1046H112.107Z" fill="white"/>
<path d="M133.594 81.1984C133.594 75.3408 133.479 70.402 133.18 66.0146H144.495L145.116 73.6639H145.438C147.646 69.6899 153.189 64.8431 161.675 64.8431C170.599 64.8431 179.821 70.6088 179.821 86.7344V116.987H166.919V88.2045C166.919 80.8768 164.182 75.3178 157.168 75.3178C152.039 75.3178 148.474 78.9932 147.094 82.8523C146.703 84.0238 146.588 85.6088 146.588 87.056V117.01H133.594V81.1984Z" fill="white"/>
<path d="M235.72 45.5352V102.664C235.72 107.901 235.927 113.552 236.134 117.021H224.611L224.082 108.958H223.875C220.84 114.609 214.653 118.169 207.201 118.169C195.035 118.169 185.398 107.809 185.398 92.0972C185.283 75.0298 195.978 64.8537 208.236 64.8537C215.251 64.8537 220.288 67.794 222.588 71.5612H222.795L222.841 45.5352H235.72ZM222.841 87.2733C222.841 86.2396 222.726 84.9762 222.519 83.9196C221.369 78.9119 217.275 74.8231 211.41 74.8231C203.131 74.8231 198.508 82.1508 198.508 91.6837C198.508 100.987 203.131 107.809 211.318 107.809C216.539 107.809 221.162 104.249 222.427 98.6899C222.749 97.5413 222.841 96.2779 222.841 94.9226V87.2733Z" fill="white"/>
<path d="M244.837 66.01H257.846V117.005H244.837V66.01Z" fill="white"/>
<path d="M266.957 82.4598C266.957 75.5456 266.842 70.6298 266.543 66.0127H277.767L278.181 75.7293H278.595C281.102 68.5165 287.081 66.0127 292.555 66.0127C293.797 66.0127 294.533 65.8059 295.591 66.0127V77.3373C294.556 77.1306 293.406 76.9238 291.819 76.9238C285.633 76.9238 281.424 80.8978 280.274 86.6405C280.067 87.7891 279.86 89.1673 279.86 90.6375V117.008H266.957V82.4598Z" fill="white"/>
<path d="M301.562 66.01H314.551V117.005H301.562V66.01Z" fill="white"/>
<path d="M298.908 4.29566C291.089 8.82092 265.583 23.3845 265.583 23.3845C256.016 27.3355 248.679 22.5346 246.31 18.9971C246.195 18.8593 246.103 18.6985 246.034 18.5836L245.712 18.0552L244.102 15.4136C243.412 14.334 242.653 13.2084 241.756 12.0598C240.974 11.0491 240.1 10.0614 239.157 9.09664C233.017 2.89449 223.173 -1.47003 206.798 6.31711C196.885 11.9679 173.841 25.1303 173.841 25.1303C164.365 30.5514 156.982 34.7551 156.982 34.7551L165.699 45.4596C169.379 48.9512 176.278 54.6939 186.95 49.847C186.95 49.847 216.435 32.8026 216.55 32.7566C241.756 18.9511 254.199 32.1364 259.672 40.9343C259.856 41.2099 260.017 41.5085 260.201 41.7612L260.224 41.7842C260.293 41.899 260.339 41.9909 260.385 42.0828L261.006 43.0935C263.674 47.1594 267.906 49.778 272.943 49.6402C275.726 49.5943 277.611 48.6755 280.348 47.1594L308.867 30.6434C308.89 30.6434 308.89 30.6204 308.936 30.6204C334.442 16.6311 347.091 30.6892 352.496 39.4871C352.91 40.2451 353.393 40.9802 353.876 41.6464C356.544 45.2758 360.246 47.6418 364.915 47.5269C367.997 47.458 371.47 45.6204 371.999 45.2758L406.198 25.5667C406.198 25.5667 402.702 20.3064 395.504 12.0828C389.064 4.75511 382.233 8.0629 376.806 10.7735C374.529 11.899 358.016 21.2482 358.016 21.2482C348.977 24.9695 341.939 20.9036 339.157 17.4809C338.881 17.1134 338.628 16.7919 338.444 16.4474L337.8 15.3447C336.811 13.6678 335.615 11.7842 334.166 9.92356C333.384 8.91284 332.51 7.90217 331.567 6.96036C327.772 3.12422 322.574 0.00010832 315.284 0.00010832C310.661 0.00010832 305.279 1.21755 298.908 4.29566Z" fill="white"/>
</svg>
