<svg width="387" height="120" viewBox="0 0 387 120" fill="none" xmlns="http://www.w3.org/2000/svg">
<path d="M162.768 10.4119C170.987 10.2137 179.647 10.5155 187.937 10.4106C194.591 10.4608 200.99 10.1907 207.646 10.7014C222.93 11.8739 231.705 25.2193 225.908 39.5854C223.109 46.5201 215.424 54.0924 208.468 56.9871C212.325 58.8073 215.265 60.6501 217.299 64.6131C220.188 70.2403 220.369 78.8461 218.381 84.7586C215.403 93.608 208.989 99.4967 200.969 103.693C189.39 109.198 178.376 107.998 165.96 108.014C156.314 108.026 146.557 108.183 136.924 107.977C137.826 105.236 138.706 101.252 139.484 98.3157L145.457 75.3163L151.94 50.1876C152.762 46.9061 154.063 42.6163 154.629 39.4142C152.476 39.511 149.727 39.4254 147.53 39.4197C149.271 35.1844 152.675 29.2929 154.733 25.2231C155.695 23.3203 161.733 11.1331 162.768 10.4119ZM171.441 83.0291C176.471 83.0535 183.654 83.6767 188.057 81.7182C190.567 80.0991 192.651 78.5416 193.335 75.428C194.166 71.6529 191.909 68.0756 188.035 67.4627C184.104 66.8407 179.472 67.7363 175.586 67.1997C174.715 70.7927 173.806 74.3769 172.861 77.9514C172.593 78.9846 171.822 82.2042 171.441 83.0291ZM180.142 49.9874C184.909 50.0263 189.668 50.4854 194.111 48.7539C197.814 46.3391 199.748 42.4318 198.107 38.1193C194.326 35.0776 188.356 36.2259 183.398 36.0742C182.211 40.7171 181.304 45.3727 180.142 49.9874Z" fill="#FEFEFE"/>
<path d="M332.739 10.4019L362.458 10.4154C367.632 10.4177 374.043 10.6046 379.073 10.3086L381.515 69.0396L382.448 90.7402C382.704 96.5887 383.023 102.113 382.989 107.978C373.238 108.203 361.731 108.117 351.933 108.019C351.601 103.197 351.803 96.1721 351.791 91.1266L332.667 91.1343L330.828 91.0717C330.448 92.4008 328.56 96.9008 327.897 98.4096C326.825 100.854 324.965 105.891 323.743 107.976C312.698 108.179 301.07 108.063 289.998 108.017C292.554 101.929 297.207 93.6202 300.238 87.5753L325.148 38.5045C322.595 38.5308 319.602 38.1664 317.1 38.4121C320.924 32.583 324.045 25.0719 327.733 19.0377C329.094 16.8098 330.984 12.1675 332.739 10.4019ZM340.598 68.5168C344.291 68.5302 348.321 68.6134 351.984 68.4602L351.676 50.2828C351.663 49.1189 351.765 41.6283 351.476 41.277C348.355 48.1002 345.651 55.3596 342.628 62.25C341.821 64.0859 340.705 66.3662 340.078 68.2264L340.19 68.5176L340.598 68.5168Z" fill="#FEFEFE"/>
<path d="M297.579 9.62891C298.891 10.0351 301.831 11.7272 303.242 12.4336C308.167 14.8991 313.135 17.9353 318.107 20.2521C317.123 22.7915 313.988 28.14 312.53 30.7649C309.502 36.2155 306.492 41.8948 303.397 47.287C298.453 43.7985 294.242 40.9365 288.128 39.9749C279.91 38.6829 271.438 39.8225 264.559 44.6195C259.017 48.5134 255.236 54.4349 254.041 61.0974C253.129 66.2074 253.697 71.9833 256.847 76.2325C266.995 89.9233 286.84 85.5831 298.772 77.211C297.994 79.4002 296.078 83.251 295.026 85.4608C293.036 89.6412 291.034 94.0817 288.957 98.2044C288.242 99.7714 284.801 108.155 283.527 108.547C276.075 110.841 268.568 111.377 260.775 110.811C231.012 108.646 216.81 83.4615 225.472 55.641C230.457 39.7772 241.478 26.5036 256.16 18.6769C265.801 13.6255 277.833 10.5375 288.914 11.2725C290.568 11.3822 293.44 12.3395 295.136 12.8692L297.579 9.62891Z" fill="#FEFEFE"/>
<path d="M12.937 11.0067C15.9727 9.28617 22.3896 6.94855 25.7509 5.83759C46.4624 -1.11466 68.7899 -1.66964 89.8219 4.24502C96.6788 6.19491 103.362 8.70827 109.804 11.7594C111.628 14.6647 113.645 20.1882 114.82 23.4811C121.809 43.0648 123.661 64.1173 118.845 84.4296C117.558 89.8539 113.075 104.72 110.005 109.07C101.984 113.343 87.7127 117.325 78.7113 118.564C76.2896 118.913 73.8617 119.216 71.4286 119.474C70.3567 119.579 67.2791 119.781 66.3805 120H57.3175C52.5638 119.126 47.6503 118.955 42.8745 118.063C37.8987 117.134 15.3438 111.047 12.7503 107.336C11.0458 104.896 9.29712 99.5784 8.29148 96.636C1.93283 78.0311 0.0280556 58.4824 3.61627 39.0856C4.98289 31.6979 8.96197 17.3559 12.937 11.0067ZM15.0137 13.0491C2.35771 40.8092 0.923794 68.0262 11.3843 97.0365C12.1431 99.1412 14.2249 104.299 15.2763 106.031C30.5448 112.956 48.392 118.046 65.2872 117.017C80.2333 116.753 94.5134 112.884 108.076 106.794C111.622 98.4962 114.539 91.3811 116.456 82.4265C120.948 61.4516 118.738 40.2592 110.726 20.4041C109.895 18.3447 108.775 15.9773 108.048 14.0189C100.475 9.9238 89.3191 6.5081 80.9259 4.7014C76.0422 3.65016 62.0396 1.83118 57.1096 2.7465C42.3195 3.7675 28.4077 6.32512 15.0137 13.0491Z" fill="#FEFEFE"/>
<path d="M60.1015 11.0268C70.1443 10.5999 78.4682 16.9794 79.6744 27.0759C81.4603 38.4238 73.2333 42.9408 67.5624 50.9038C60.5277 60.7821 62.3903 75.3243 62.0759 86.8109C62.0542 87.6062 62.2622 90.5126 61.9084 90.9589C61.1776 90.9721 60.3538 91.0589 59.7977 90.6453C59.5582 88.614 59.6717 85.4125 59.629 83.244C59.4619 74.7538 59.8698 65.8566 57.2466 57.6766C56.1546 54.3474 54.462 51.2459 52.2525 48.5255C47.5626 42.7227 42.2116 39.2959 41.7359 30.9425C41.0628 19.1242 48.6183 11.7857 60.1015 11.0268Z" fill="#FEFEFE"/>
<path d="M84.0984 40.4162C87.3179 40.1885 92.3252 41.503 94.8632 43.4517C102.329 49.1838 103.931 62.4953 94.3912 67.166C92.349 68.1659 89.875 68.6292 87.7021 69.2572C79.9944 71.484 74.1473 72.9962 69.1784 79.6521C66.2619 84.4492 66.6003 85.8725 65.6222 90.8611C65.0257 91.0615 64.9188 91.0975 64.3126 90.963C64.037 90.707 63.7076 90.436 63.7005 90.0181C63.4918 77.5859 61.863 63.4534 68.8296 52.4723C73.001 45.8974 76.8357 42.2889 84.0984 40.4162Z" fill="#FEFEFE"/>
<path d="M35.1508 40.4332C46.2282 39.153 56.3492 55.769 57.3598 65.066C57.694 68.1407 58.569 89.6769 57.6959 90.8767C57.058 91.0962 57.2276 91.0222 56.4549 90.8375C56.0827 90.4528 56.0765 89.5464 55.9815 88.9398C55.5617 86.2634 54.6916 83.3579 53.29 81.0296C48.6161 73.2879 41.7315 71.5269 33.3789 69.1052C30.7968 68.3671 27.9299 67.8605 25.6834 66.3045C19.3458 61.9147 19.4041 52.7394 23.5085 46.8296C26.6324 42.3313 30.1631 41.373 35.1508 40.4332Z" fill="#FEFEFE"/>
<path d="M99.3314 66.1577C100.65 66.7694 101.309 69.437 101.541 70.7707C102.181 74.4515 101.937 77.7677 99.7653 80.9081C98.6141 82.5738 97.0632 83.9243 95.2546 84.836C86.6248 89.1383 76.5641 79.4258 69.9831 89.0987C69.5509 89.9083 68.9502 91.2734 67.8148 90.907C66.4388 89.1155 68.4889 84.5072 69.4034 82.6987C73.2596 75.0726 82.1028 73.0711 89.6415 70.9702C93.9997 69.7556 96.0341 69.4956 99.3314 66.1577Z" fill="#FEFEFE"/>
<path d="M21.9433 66.1204C22.5399 66.2855 24.6616 68.7968 26.5444 69.4123C33.0797 71.5485 40.333 72.659 46.2293 76.3162C50.4868 78.9602 53.0271 83.2247 54.0256 88.0494C54.2226 89 54.6863 90.7368 53.4684 90.9679C52.7693 90.7173 52.5703 90.4092 52.0983 89.8547C44.3329 78.3592 35.2352 90.166 25.4811 84.3356C23.1006 82.9126 20.7689 80.1015 20.125 77.3609C19.2147 73.5215 19.8688 69.4779 21.9433 66.1204Z" fill="#FEFEFE"/>
<path d="M72.687 100.439C74.6715 100.033 75.1276 101.71 75.4257 103.18C75.327 103.378 74.7018 104.683 74.7628 104.756C76.6055 106.954 77.6088 109.324 73.7859 110.284C72.7085 110.47 71.6331 110.668 70.5602 110.88C70.1183 107.61 69.4491 104.144 69.228 100.886C70.4764 100.769 71.4558 100.638 72.687 100.439ZM73.7776 108.595C74.0524 107.51 74.1479 106.529 72.9921 105.988L72.0055 105.978C72.0229 106.976 71.8788 108.176 72.5225 108.843C73.0875 108.902 73.2429 108.811 73.7776 108.595Z" fill="#FEFEFE"/>
<path d="M39.0541 98.5632C44.6784 99.3146 46.3199 100.764 43.7686 104.529C43.7344 104.579 43.5245 109.27 43.4999 109.735C42.8171 109.593 41.9555 109.485 41.5444 108.949C41.244 108.311 41.4745 107.538 41.5977 106.816C41.7491 106.169 41.7954 106.028 41.6573 105.387C41.3018 104.839 40.575 104.707 39.9299 104.502C39.5766 105.933 39.2913 107.327 38.9956 108.77L36.9229 108.158C37.6298 104.785 38.1835 101.895 39.0541 98.5632ZM42.2181 103.289C42.5205 102.725 42.8787 102.211 42.8167 101.582C42.3078 100.767 41.8312 100.742 40.8539 100.491C40.6713 101.241 40.3461 102.188 40.5825 102.888C41.0597 103.329 41.565 103.428 42.2181 103.289Z" fill="#FEFEFE"/>
<path d="M31.0184 96.6222C33.2498 96.56 33.7949 96.6435 35.505 98.0673C35.7074 98.9722 35.8841 99.8141 35.6352 100.722L35.2261 100.942C33.0151 100.718 34.2239 98.1047 32.408 98.3341C31.0124 99.3477 29.9391 103.226 30.529 104.858C30.9886 105.342 30.7635 105.224 31.4253 105.327C31.7837 105.199 32.1553 105.036 32.341 104.699C33.0717 103.373 32.5721 103.216 31.6742 102.637C31.7943 102.158 31.824 101.833 32.1922 101.515C33.0887 101.283 34.2693 101.908 35.2028 102.26C34.8726 103.491 34.5149 107.048 33.2048 107.289C31.4593 106.304 29.9108 107.126 29.004 106.162C26.9229 103.951 29.5416 98.2364 31.0184 96.6222Z" fill="#FEFEFE"/>
<path d="M48.0239 100.104C49.9356 100.308 49.8956 100.292 49.7774 102.108C49.6693 103.77 48.5817 106.984 49.3195 108.404C49.9129 108.875 49.6469 108.754 50.4152 108.872C52.0361 108.201 51.5844 102.831 52.5482 100.903C53.0259 100.533 52.8137 100.6 53.3908 100.597C54.4567 101.093 54.3187 101.185 54.2326 102.221C54.0264 104.306 53.91 106.192 53.3813 108.33C52.8077 111.285 48.2293 111.416 47.2456 108.893C46.5144 107.017 47.3037 101.83 48.0239 100.104Z" fill="#FEFEFE"/>
<path d="M88.873 97.0522C89.5947 97.4038 93.2744 104.428 94.1233 105.754C93.5189 105.994 92.7541 106.24 92.128 106.46C91.7811 105.827 91.1997 104.645 90.7114 104.191L90.404 104.298C89.8222 104.506 89.6232 104.552 89.1745 104.966C88.8732 105.541 89.1927 106.462 89.3433 107.143L87.1726 107.985C86.8967 104.324 86.6899 101.349 86.6357 97.6841C87.3202 97.4632 88.1679 97.25 88.873 97.0522Z" fill="#FEFEFE"/>
<path d="M57.0574 100.929C60.1929 101.432 62.1816 100.348 63.085 104.01C62.3514 107.183 61.4252 107.016 58.4915 107.052L58.5165 108.064C58.5427 109.351 58.7678 110.09 57.9322 110.96C57.2237 111.057 57.4892 111.097 56.8484 110.822C56.1015 109.584 56.7213 102.582 57.0574 100.929ZM60.4882 105.331C60.8249 104.646 60.9824 104.404 60.9142 103.628C60.539 102.658 59.8573 102.642 58.9387 102.511C58.8777 103.329 58.6109 104.675 58.9736 105.266C59.4355 105.549 59.9444 105.407 60.4882 105.331Z" fill="#FEFEFE"/>
<path d="M81.2337 98.9419C83.1524 99.2134 85.1256 101.415 82.936 102.208C81.9756 102.01 81.8036 101.122 80.7365 100.588C78.589 100.955 80.8468 106.987 81.5736 107.627C82.5156 107.409 82.79 106.012 83.1835 105.266C83.4803 105.059 83.7239 104.889 83.9143 104.756L84.4445 104.981C85.1955 106.856 84.3384 108.775 82.2832 109.244C81.5666 109.413 80.8122 109.27 80.2065 108.853C78.4356 107.638 77.1407 102.04 78.3033 100.06C78.7819 99.2451 80.3273 99.0604 81.2337 98.9419Z" fill="#FEFEFE"/>
</svg>
