<svg width="1254" height="1254" viewBox="0 0 1254 1254" fill="none" xmlns="http://www.w3.org/2000/svg">
<path d="M625.041 37.4536C647.849 44.3386 675.323 52.237 696.558 62.4342C752.051 89.083 793.186 132.641 826.201 183.606C825.503 175.231 824.634 166.053 826.134 157.725C828.822 142.834 838.178 128.093 844.974 114.514C848.403 107.665 852.524 99.2521 856.137 92.706C850.883 119.118 840.737 145.609 846.358 173.074C850.087 191.278 865.438 207.156 875.822 222.05C880.555 228.843 884.088 237.169 888.828 243.792C892.299 238.173 896.892 230.898 899.218 224.857C907.901 202.256 915.977 177.494 922.125 154.108C922.284 157.97 922.388 161.741 922.811 165.586C923.037 172.126 923.086 176.858 922.792 183.459L922.462 188.629L921.531 199.374C921.2 203.278 920.931 206.637 920.857 210.564C921.114 213.335 920.741 217.573 921.874 219.785C923.264 220.663 923.956 220.962 925.431 221.645C928.897 214.721 931.628 209.556 934.799 202.351C938.069 194.841 942.582 179.129 945.184 170.846C947.548 164.816 949.17 159.655 951.068 153.504C951.032 167.68 947.995 186.718 947.101 201.169C946.746 206.872 944.805 214.016 944.713 220.038C942.857 227.272 947.168 245.369 949.446 252.743C951.093 258.822 952.954 263.822 955.306 269.681L957.296 275.986L959.586 288.511C960.161 298.001 960.155 307.615 960.645 317.108L961.514 340.179C961.582 340.915 961.447 340.52 962.188 341.233C977.104 341.226 977.263 333.917 982.676 321.432C984.886 316.067 986.166 310.936 987.476 305.306C988.725 301.056 989.595 295.247 990.035 290.828L990.391 288.008C992.411 274.073 990.88 260.066 992.417 249.612C994.811 255.996 997.016 264.65 998.742 271.35L1002.68 291.917C1003.01 295.373 1003.48 299.26 1003.68 302.685C1003.77 306.667 1004.25 316.067 1003.11 319.387C1000.02 328.362 996.734 335.431 994.493 344.875C1009.16 348.768 1016.92 352.13 1030.39 358.816L1033.91 354.731C1031.32 338.54 1029.56 318.741 1028.61 302.229C1028.55 297.188 1028.37 292.148 1028.08 287.115L1028.84 283.242C1045.38 292.91 1107.27 345.171 1116.04 360.55C1122.09 371.185 1129.09 398.57 1133.16 411.432C1135.66 419.355 1139.04 427.224 1141.19 435.208C1144.48 447.441 1137.15 474.755 1132.67 486.742C1129.29 495.754 1124.61 504.305 1122.24 513.665C1118.82 527.137 1117.66 550.774 1110.97 562.052C1108.15 566.813 1103.56 569.811 1098.21 571.029C1092.66 572.289 1086.9 572.055 1081.39 573.407C1074.21 580.382 1065 587.67 1058.3 594.594C1042 611.447 1028.87 617.399 1007.23 626.094C998.73 642.099 1003.27 674.876 1002.3 693.655C1000.08 697.097 984.139 718.246 983.716 719.507C976.412 741.403 974.954 766.82 969.56 789.493C968.433 794.208 967.092 800.454 966.523 805.242C975.077 799.847 978.647 797.374 987.905 793.431C998.161 789.065 1024.58 782.225 1032.9 776.843C1044.73 769.183 1062.08 747.716 1072.87 737.503C1085.67 725.403 1097.63 717.437 1110.76 706.765C1100.12 733.406 1090.94 764.475 1081.41 791.71C1077.39 803.209 1067.72 828.797 1065.38 839.666C1089.98 844.313 1119.9 846.181 1145.3 851.612C1149.71 852.555 1184.48 887.566 1189.54 893.499C1193.01 904.092 1198.76 930.525 1201.16 940.849L1224.96 1041.16C1226.86 1049.2 1232.09 1067.57 1232.97 1074.7L1209.57 1094.69C1206.03 1097.77 1197.26 1105.79 1193.76 1108C1183.65 1114.37 1169.83 1120.43 1158.78 1125.54C1148.77 1130.19 1135.89 1136.84 1125.89 1140.69C1103.07 1137.12 1079.25 1131.81 1056.02 1127.94C1004.19 1119.43 952.152 1112.32 899.947 1106.59C876.514 1104.06 845.127 1100.6 821.756 1100.12C819.362 1103.43 817.041 1105.96 816.123 1109.85C818.774 1113.25 821.186 1120.74 820.599 1124.94C818.633 1139.05 797.429 1147.55 785.14 1149.49C778.117 1150.59 770.23 1149.66 763.33 1148.84C745.891 1162.34 727.902 1160.17 707.8 1153.78C689.1 1176.9 670.89 1190.89 639.589 1190.15C626.62 1189.85 613.48 1186.9 601.885 1180.95C598.489 1179.36 590.027 1172.26 586.892 1171.59C563.287 1166.53 555.758 1163.05 539.014 1145.56C529.437 1142.84 519.372 1142.87 509.618 1140.54C482.405 1134.04 453.577 1118.83 440.447 1092.95C438.433 1088.98 436.501 1085.33 434.166 1081.55C432.498 1088.66 431.247 1096.59 429.612 1103.96C407.094 1106.78 384.006 1108.46 361.311 1111.16C317.487 1116.29 273.834 1122.79 230.419 1130.66C202.297 1135.72 174.286 1141.38 146.405 1147.64C132.664 1150.72 116.84 1155.39 103.255 1157.56C92.5132 1153.43 81.1102 1147.65 70.6025 1142.73L26.4102 1122.12C35.35 1086.48 43.698 1050.65 52.6211 1015C53.5519 1011.28 54.6351 1007.53 55.0168 1003.72C57.8554 995.056 61.3132 979.351 63.5077 970.307C68.2285 950.591 73.0774 930.905 78.0524 911.25C81.0282 898.477 86.8365 872.21 90.8673 860.784C96.8856 858.782 106.391 857.251 112.744 855.965C127.014 853.081 141.537 850.748 155.761 847.644C150.007 836.341 143.203 824.542 137.919 813.049C125.43 785.887 110.433 728.502 111.847 699.154L115.164 703.134C132.746 725.979 145.08 741.011 167.029 759.833C162.564 741.452 167.752 725.636 172.002 707.647C161.642 701.64 149.072 692.008 139.939 684.275C134.881 679.83 131.074 675.984 126.39 671.19L125.294 670.014C112.738 656.305 89.0745 625.91 81.4102 608.913C77.2815 599.61 74.6755 589.703 73.6909 579.571C101.019 596.775 140.858 607.166 172.798 609.84C165.039 588.475 166.909 567.338 162.654 545.165C159.357 527.985 149.756 507.969 151.743 490.92C127.295 486.057 105.402 487.922 81.7764 495.656C85.6504 491.69 89.3206 486.527 93.18 482.382C99.6153 475.469 106.354 468.803 113.129 462.229C150.225 426.479 190.72 394.433 234.04 366.547C248.123 357.516 262.467 349.511 276.809 340.956C272.658 334.789 241.663 292.961 238.713 291.009C233.965 287.87 227.859 286.067 222.626 283.863C217.965 281.9 213.445 279.611 208.921 277.353C212.658 277.43 214.39 277.344 218.069 276.989L225.159 276.674L226.912 276.836L227.976 276.592L241.923 276.732L251.536 276.76L254.509 276.692C266.77 274.319 275.748 273.205 262.427 261.234L260.771 260.403L255.13 257.917C248.961 255.515 242.01 252.353 235.856 249.705L233.183 248.517C209.927 238.322 189.394 229.802 166.31 218.84C174.107 219.284 192.364 217.845 200.86 217.39L253.457 214.957C295.588 212.8 329.244 212.892 371.278 214.449C376.324 212.697 376.518 211.242 376.322 206.157C369.939 201.077 359.718 195.661 352.38 191.549C305.644 165.366 256.015 144.747 208.748 119.563C196.697 113.142 184.881 106.329 172.769 100.032C191.896 98.5241 211.253 95.8636 230.453 94.5398C281.385 91.0276 332.464 90.1637 382.82 99.9232C403.598 103.95 423.497 109.578 443.779 115.391C448.767 117.202 472.996 126.188 476.138 126.525C481.224 128.947 486.974 130.709 492.342 132.511L489.568 122.738C486.73 115.747 484.328 110.89 480.913 104.224C480.616 100.845 479.729 96.5274 478.466 93.3624C477.35 90.5678 474.824 87.5571 474.449 84.694L474.921 84.1166C480.602 83.3732 483.745 88.9893 489.759 89.5361L490.781 90.1184C492.675 91.5432 494.72 93.1536 496.68 94.4535C503.947 98.9937 509.93 105.443 516.328 111.256L545.08 137.148C537.954 116.821 530.783 99.5123 525.209 78.6174L524.604 76.3311C523.546 72.4693 523.142 69.6307 522.543 65.6788C522.327 63.4274 522.321 60.6505 522.254 58.35L522.744 57.3251C533.53 58.2324 589.747 91.1648 600.955 98.4635C606.169 101.858 618.324 110.319 623.62 113.101C624.532 113.788 625.463 114.523 626.4 115.172C631.623 118.902 637.722 123.044 642.718 126.946L644.757 128.276L649.649 132.155C653.25 135.042 656.905 137.914 660.371 140.954C665.82 145.646 671.257 150.783 676.566 155.659C678.134 144.495 681.011 131.66 677.319 120.829C676.597 118.712 673.645 115.348 672.158 113.544C666.439 106.641 660.879 99.2815 655.386 92.1745C645.51 78.4999 629.315 53.2165 625.041 37.4536Z" fill="#FAF9F9"/>
<path d="M816.123 1109.85C809.4 1115.15 799.242 1115.8 798.011 1105.27C796.878 1095.68 815.755 1099.6 821.756 1100.12C819.362 1103.43 817.041 1105.96 816.123 1109.85Z" fill="black"/>
<path d="M262.427 261.234C274.952 266.449 287.388 271.874 299.731 277.504L254.509 276.692C266.769 274.319 275.748 273.205 262.427 261.234Z" fill="black"/>
<path d="M376.322 206.157C382.07 209.73 388.124 213.62 393.926 217.048C386.388 216.086 378.838 215.219 371.278 214.449C376.324 212.697 376.519 211.242 376.322 206.157Z" fill="black"/>
<path d="M920.857 210.564C921.114 213.336 920.741 217.573 921.874 219.785C923.263 220.663 923.955 220.962 925.431 221.645L920.251 231.137C920.3 225.578 920.098 215.667 920.857 210.564Z" fill="black"/>
<path d="M643.336 54.1238C670.614 62.5475 692.216 70.3391 716.347 85.6253C738.666 99.4989 758.676 116.188 776.212 135.768C784.344 144.842 788.771 148.02 791.569 160.249C804.654 173.469 828.803 218.772 839.476 237.036C842.635 227.192 843.927 223.114 852.297 217.003C871.775 236.05 874.457 248.138 882.159 274.245C892.911 277.632 899.512 282.927 908.764 289.209C916.718 305.463 918.445 318.61 917.208 336.385C930.685 345.094 930.14 350.246 928.333 364.619C934.285 366.368 940.365 367.16 946.519 367.727C950.333 361.513 953.285 357.671 959.42 353.632C975.72 352.307 983.716 355.503 998.767 359.741C1023.65 366.748 1028.11 370.427 1044.19 389.781L1045.2 389.499C1048.8 383.032 1040.86 318.433 1039.79 304.982C1061.57 324.52 1086.43 340.768 1104.95 364.153C1109.7 370.652 1111.42 379.808 1114.02 387.053C1121.93 409.077 1122.33 421.618 1119.07 444.534C1122.74 450.038 1123.01 452.476 1130.11 450.507C1128.08 462.356 1124.17 490.997 1114.76 498.806C1114.49 500.226 1113.54 505.187 1112.76 506.698C1104.43 522.952 1115.75 560.243 1089.52 562.19C1084.98 562.527 1081.21 562.98 1077.15 563.345C1071.5 569.718 1065.12 574.615 1059.18 580.16C1038.81 599.165 1032.35 604.482 1005.96 614.319C1012.4 591.42 1022.63 566.018 1030.53 543.017L1028.67 535.152C1024.32 535.108 1007.11 535.945 1004.02 539.102C988.498 554.992 977.838 576.393 960.4 590.677C954.638 595.396 946.886 599.023 940.255 602.084C939.447 573.546 941.988 543.234 938.461 514.397C935.632 515.351 929.239 517.355 926.968 518.789C915.897 525.771 910.509 540.909 900.124 548.986C898.073 550.582 893.965 552.492 891.54 553.669C892.244 578.006 892.171 601.636 903.566 623.975C908.568 635.033 917.036 635.658 928.584 637.415C953.285 641.163 986.551 658.381 988.798 686.436C989.76 698.45 971.372 706.722 962.886 711.339C960.094 712.857 953.236 720.193 950.548 722.844C949.721 728.508 945.864 736.841 945.808 740.846C945.564 758.137 957.436 773.696 933.703 781.013C924.457 778.564 921.996 776.831 915.518 770.187C903.694 784.485 897.161 794.514 878.639 802.529C869.772 806.362 850.197 813.753 839.867 810.704C835.783 809.504 834.314 799.67 832.936 795.855C829.238 785.642 824.101 779.782 814.279 774.939C780.296 780.952 758.241 786.022 724.889 774.37C742.046 764.854 763.305 743.62 766.715 723.524C770.604 700.63 755.804 674.913 743.325 656.905C737.049 656.733 731.771 657.358 725.379 657.725C690.6 659.746 648.81 656.495 617.068 641.414C611.305 638.677 605.218 633.686 600.572 629.621C613.033 625.096 663.12 610.054 659.072 592.356C653.108 588.304 602.424 583.144 589.448 580.28C586.704 584.095 583.671 588.03 580.695 592.078C571.119 605.106 560.352 632.296 557.792 647.935C557.179 651.688 562.219 679.064 563.143 684.397C571.098 678.789 579.092 673.382 587.027 667.718C594.853 662.134 603.106 655.435 611.107 650.286C611.9 655.986 613.29 665.973 612.647 671.398C609.883 694.727 599.623 728.171 591.32 750.036C598.18 759.331 608.828 769.055 616.144 778.576C625.096 790.228 631.898 803.068 640.709 814.592L621.605 814.733L592.181 781.938C592.097 782.078 592.013 782.219 591.929 782.354L591.489 783.04C588.777 787.338 585.82 790.332 582.407 794.067C587.736 801.201 593.655 807.948 598.908 815.014L576.054 815.431L557.67 815.614C529.865 816.331 497.489 816.637 469.895 818.67C458.643 818.284 445.635 819.594 434.072 819.851C427.826 820.372 421.572 820.807 415.313 821.15C411.209 822.056 389.055 822.582 383.924 822.815C378.399 823.519 366.066 823.917 361.964 824.823C356.196 824.793 345.933 825.809 339.978 826.519C331.885 818.149 325.035 811.738 315.746 804.562C298.181 790.994 282.51 773.727 264.988 760.213C262.953 782.905 273.967 810.453 282.878 831.295C269.448 832.838 255.744 834.559 242.318 835.937L237.411 836.439C214.14 839.813 190.44 842.188 167.096 845.648C145.15 809.491 132.916 776.727 126.198 734.753C148.989 760.905 172.638 781.509 205.207 795.157C194.939 764.952 187.673 733.804 183.515 702.173C150.124 682.193 123.74 656.77 102.632 624.098C96.8994 615.225 92.3678 609.166 88.626 599.221C124.688 614.778 150.456 620.663 189.735 621.765C193.493 580.554 202.933 535.333 219.146 497.159C182.672 486.355 150.136 475.368 111.72 478.406C166.736 422.37 225.952 381.947 293.651 343.415C280.774 331.281 260.969 303.125 250.018 287.734C279.809 287.336 312.714 289.344 342.339 292.288C337.659 287.642 330.495 280.566 324.761 277.462C288.532 257.855 247.476 244.627 210.35 227.433C215.708 227.44 221.065 226.939 226.431 226.769C268.451 225.435 311.993 221.896 353.93 224.808C382.853 226.817 414.842 234.339 442.601 242.103C445.56 240.469 448.718 238.861 451.72 237.273C416.468 218.242 384.796 196.238 349.146 177.47C321.831 163.089 294.997 150.781 267.251 137.484C246.984 127.74 226.904 117.611 207.023 107.102C271.316 100.027 341.247 99.6666 404.096 115.398C430.714 122.06 454.194 130.289 479.803 139.604C510.955 150.86 541.699 163.215 571.978 176.643C562.094 143.47 545.724 107.897 534.516 73.4496C587.247 98.3257 641.732 135.908 682.499 177.548C690.318 185.534 698.125 194.208 706.514 201.473C708.896 203.534 719.421 206.56 722.844 207.672C720.376 196.868 718 186.043 715.729 175.197C711.424 154.892 710.812 149.173 699.037 131.698C681.44 105.575 657.511 82.2111 643.336 54.1238Z" fill="black"/>
<path d="M503.255 257.969C509.416 261.798 515.6 266.175 521.605 270.287C513.911 273.322 506.129 276.127 498.267 278.697C503.593 282.708 510.438 287.591 515.379 291.838C498.238 293.147 478.817 296.665 462.921 302.937C454.183 300.361 444.507 297.445 435.967 294.222C440.097 304.201 445.056 314.966 448.926 324.805C370.602 355.441 302.569 429.151 270.259 505.759C236.907 584.837 215.442 691.819 227.161 778.123C229.635 796.345 236.036 818.798 242.318 835.937L237.412 836.439C220.985 787.314 205.212 720.45 206.337 668.202C206.43 660.573 206.49 653.115 207.398 645.522L209.298 645.014C210.056 637.324 212.23 626.063 213.641 618.428C219.942 583.396 229.886 549.119 243.308 516.153C279.577 427.995 346.443 341.773 429.067 292.837C455.694 277.067 475.161 269.641 503.255 257.969Z" fill="#676767"/>
<path d="M207.398 645.522L209.298 645.014C208.92 649.264 207.863 665.318 206.337 668.202C206.43 660.573 206.49 653.115 207.398 645.522Z" fill="#FAF9F9"/>
<path d="M478.535 244.483C486.707 249.061 495.005 253.288 503.254 257.97C475.161 269.641 455.694 277.067 429.066 292.837C346.443 341.773 279.577 427.996 243.308 516.153C229.885 549.119 219.942 583.396 213.64 618.428C212.23 626.063 210.056 637.324 209.298 645.014L207.398 645.522C208.481 602.89 221.412 542.302 236.239 502.582C279.927 388.038 366.976 295.312 478.535 244.483Z" fill="#FAF9F9"/>
<path d="M357.972 728.612C365.918 733.755 377.797 741.874 385.863 746.001C409.166 757.917 434.81 766.507 459.408 775.19C450.123 775.747 421.171 772.03 410.922 769.869C427.782 784.35 442.034 802.688 461.975 812.932C463.812 813.875 469.672 816.453 470.338 818.106L469.895 818.67C458.643 818.284 445.635 819.594 434.072 819.851C430.823 818.486 415.465 815.584 409.967 814.047C392.662 809.203 370.978 787.595 359.565 773.788C358.582 756.6 356.752 746.454 357.972 728.612Z" fill="#969595"/>
<path d="M527.931 769.808C529.594 771.645 536.58 774.002 539.584 776.329C548.782 783.474 555.003 790.853 557.76 802.474C558.059 803.613 560.104 811.022 560.483 811.842L557.67 815.614C529.865 816.331 497.489 816.637 469.895 818.67L470.338 818.106C469.672 816.453 463.811 813.875 461.974 812.932C442.034 802.688 427.782 784.35 410.922 769.869C421.171 772.03 450.123 775.747 459.408 775.19C479.097 780.737 499.278 789.42 518.951 795.714C521.346 787.626 524.126 777.161 527.931 769.808Z" fill="#CAC9C9"/>
<path d="M551.762 723.842C554.775 730.425 558.387 738.048 562.133 744.373C571.71 760.556 581.158 771.829 574.084 791.796C571.623 798.746 565.16 806.154 560.483 811.843C560.105 811.022 558.06 803.613 557.761 802.474C555.004 790.853 548.782 783.475 539.584 776.329C536.581 774.002 529.594 771.645 527.931 769.808L551.762 723.842Z" fill="#FAF9F9"/>
<path d="M582.407 794.067C587.736 801.201 593.655 807.948 598.908 815.014L576.054 815.431C575.096 812.406 574.114 809.393 573.108 806.381C576.174 802.254 579.274 798.145 582.407 794.067Z" fill="#CAC9C9"/>
<path d="M358.155 815.026C370.639 815.284 380.981 817.102 393.21 819.068C388.718 819.123 387.655 820.164 383.924 822.815C378.399 823.519 366.066 823.917 361.964 824.823C362.487 824.315 362.151 824.689 362.775 823.562C361.897 820.776 359.719 817.592 358.155 815.026Z" fill="#969595"/>
<path d="M393.21 819.068C402.469 820.942 405.89 821.297 415.313 821.15C411.209 822.056 389.055 822.582 383.924 822.815C387.655 820.164 388.719 819.123 393.21 819.068Z" fill="#CAC9C9"/>
<path d="M534.995 250.731C554.472 276.557 586.362 307.754 611.352 327.651L613.364 326.837C615.691 328.876 620.889 333.08 621.777 335.848C624.128 338.562 627.539 340.747 630.043 343.618C638.946 353.799 647.108 364.987 653.292 377.031C651.553 382.524 648.7 394.218 648.272 399.915L647.58 402.018C647.947 406.284 649.625 408.259 649.759 413.737C640.985 423.977 639.375 433.294 641.64 446.295C645.332 455.667 659.697 489.751 665.79 495.684L664.363 491.2C655.154 475.435 650.047 440.947 666.034 427.294C671.717 422.439 692.596 414.737 698.052 421.267C697.519 424.502 693.851 431.318 692.259 434.537C685.518 458.622 691.476 481.073 703.024 502.596C714.009 523.063 729.837 536.867 743.669 554.727C753.239 567.078 762.754 584.203 771.265 597.596C783.609 617.025 791.275 640.489 799.021 661.993C800.993 667.632 806.993 674.919 809.951 680.228C816.6 690.012 828.393 708.834 839.794 712.459C847.546 714.927 864.384 709.336 872.847 707.028C879.839 720.854 895.624 734.912 912.132 728.936L913.099 727.767L913.032 726.371C913.877 730.075 914.961 730.547 917.147 733.51L914.894 737.619C913.222 742.046 909.566 751.971 906.78 755.278C901.662 766.189 886.936 782.464 875.614 787.173C864.874 792.292 860.264 792.432 849.952 796.008C849.138 796.008 848.66 795.874 847.852 795.727L847.215 794.263C845.752 782.415 840.866 779.917 836.359 769.551C834.069 764.297 833.273 756.729 832.483 750.93C820.39 767.787 778.037 769.838 758.805 770.481L748.359 770.181C774.216 746.852 788.728 729.524 778.135 692.872C760.066 630.355 704.695 589.064 659.789 545.856C648.976 535.453 646.312 529.454 642.504 514.971C639.577 519.384 636.417 524.157 632.376 527.603C609.289 547.308 571.524 546.381 543.243 544.807C543.193 545.215 543.144 545.624 543.093 546.033C566.902 549.047 612.464 553.705 635.689 547.959L636.736 549.142C625.053 552.711 615.691 555.391 603.764 558.004L604.732 559.712C639.565 563.891 647.757 560.126 678.323 580.848C610.596 572.521 540.513 563.923 476.717 538.113C482.346 537.24 489.516 534.798 495.07 533.17C523.641 524.789 547.241 509.628 572.148 493.675C576.58 495.29 581.091 497.08 585.508 498.77C568.447 514.39 548.221 523.545 526.694 531.172C527.175 531.451 528.546 532.296 529.004 532.458C562.239 528.767 590.576 517.001 618.293 498.729C596.706 490.065 573.287 482.987 552.091 473.507C505.467 452.655 461.143 421.883 421.56 389.818C451.49 403.743 489.228 419.265 521.879 424.011C533.274 426.891 555.074 422.597 565.242 426.482C578.593 431.583 596.076 443.164 609.273 449.644C578.802 423.497 547.778 399.847 517.893 372.426C491.639 348.335 467.396 321.644 441.616 297.956C447.764 300.032 453.805 302.293 459.905 304.495C510.01 322.581 560.413 338.777 610.274 357.607C598.187 348.872 589.503 342.717 580.565 330.242C568.562 313.489 558.735 295.91 548.343 278.142C552.9 294.81 559.577 311.009 564.431 327.708L557.794 325.184C547.615 302.289 540.457 275.089 534.995 250.731Z" fill="#FAF9F9"/>
<path d="M664.363 491.2C655.154 475.435 650.047 440.947 666.034 427.294C671.717 422.439 692.596 414.737 698.052 421.267C697.519 424.502 693.851 431.318 692.259 434.537C685.518 458.622 691.476 481.073 703.024 502.596C714.008 523.063 729.837 536.867 743.668 554.726C753.239 567.078 762.754 584.203 771.265 597.596C783.609 617.025 791.275 640.489 799.021 661.993C800.992 667.632 806.993 674.919 809.95 680.228C816.6 690.012 828.393 708.834 839.794 712.459C847.546 714.927 864.384 709.336 872.846 707.028C879.839 720.854 895.624 734.912 912.132 728.936L913.099 727.767L913.032 726.371C913.877 730.075 914.961 730.547 917.147 733.51L914.893 737.619C913.222 742.046 909.566 751.971 906.78 755.278C901.661 766.189 886.936 782.464 875.614 787.173C864.874 792.292 860.264 792.432 849.952 796.008C849.138 796.008 848.66 795.874 847.852 795.727L847.215 794.263C845.752 782.415 840.866 779.917 836.359 769.551C834.069 764.297 833.273 756.729 832.483 750.93C820.39 767.787 778.037 769.838 758.805 770.481C801.39 733.1 790.895 708.596 775.22 660.358C761.976 619.591 742.358 587.082 707.144 561.849C677.784 540.811 654.805 525.858 647.647 487.743C644.83 473.696 642.124 461.275 641.64 446.295C645.332 455.667 659.697 489.751 665.789 495.684L664.363 491.2Z" fill="#CAC9C9"/>
<path d="M641.64 446.295C645.332 455.667 659.697 489.751 665.789 495.684C678.709 521.689 687.318 531.289 708.565 551.473C732.935 574.622 760.09 599.171 774.59 629.994C786.267 657.493 798.813 704.285 789.885 733.89C786.132 746.326 777.498 757.323 768.234 765.742C778.411 764.573 819.998 756.711 827.401 749.002C828.35 748.016 830.689 743.399 831.473 741.795C833.763 745.904 836.09 750.226 838.098 754.525C844.068 767.304 848.336 787.185 867.017 776.207C873.563 772.367 879.508 766.955 885.184 761.732C865.523 757.048 863.16 749.541 867.403 730.302C867.397 737.65 866.729 744.612 872.185 750.447C879.576 758.346 893.457 756.882 902.917 754.115L903.186 755.149C904.882 754.776 905.041 754.715 906.627 754.004L906.78 755.278C901.661 766.189 886.936 782.464 875.614 787.173C864.874 792.292 860.264 792.433 849.952 796.008C849.138 796.008 848.66 795.874 847.852 795.727L847.215 794.263C845.752 782.415 840.866 779.917 836.359 769.551C834.069 764.297 833.273 756.729 832.483 750.931C820.39 767.787 778.037 769.839 758.805 770.481C801.39 733.1 790.895 708.596 775.22 660.358C761.976 619.591 742.358 587.083 707.144 561.849C677.784 540.811 654.805 525.858 647.647 487.744C644.83 473.696 642.124 461.276 641.64 446.295Z" fill="#969595"/>
<path d="M903.186 755.149C904.882 754.776 905.042 754.715 906.628 754.004L906.781 755.278C901.662 766.189 886.936 782.464 875.614 787.173C877.145 779.421 895.79 760.336 903.186 755.149Z" fill="#FAF9F9"/>
<path d="M847.215 794.263C847.595 788.991 850.136 783.67 852.757 779.133C851.789 784.754 850.859 790.381 849.952 796.008C849.138 796.008 848.66 795.874 847.852 795.727L847.215 794.263Z" fill="#CAC9C9"/>
<path d="M664.363 491.2C655.154 475.435 650.047 440.947 666.035 427.294C671.717 422.439 692.597 414.737 698.052 421.267C697.519 424.502 693.852 431.318 692.26 434.537C687.992 430.653 676.444 440.865 673.842 443.957C662.189 457.812 665.165 474.68 664.363 491.2Z" fill="#969595"/>
<path d="M913.099 727.767C912.401 733.498 910.54 740.172 906.443 744.403C907.846 740.932 911.587 732.231 912.132 728.937L913.099 727.767Z" fill="#969595"/>
<path d="M902.917 754.114C905.287 752.908 904.252 752.853 906.211 753.355L906.628 754.004C905.042 754.714 904.883 754.776 903.186 755.149L902.917 754.114Z" fill="#CAC9C9"/>
<path d="M802.076 692.021C805.56 696.178 810.269 700.415 813.355 704.377C820.384 711.492 830.267 721.221 835.514 729.561C838.3 731.428 843.841 744.06 845.317 747.544C821.835 733.32 811.989 717.303 802.076 692.021Z" fill="#969595"/>
<path d="M813.355 704.377C820.384 711.492 830.267 721.221 835.514 729.561C832.018 728.245 813.82 708.247 813.355 704.377Z" fill="#0C0B0B"/>
<path d="M613.364 326.837C615.691 328.876 620.889 333.08 621.777 335.848L611.352 327.651L613.364 326.837Z" fill="black"/>
<path d="M526.694 531.172C527.175 531.451 528.546 532.296 529.004 532.458C524.374 533.267 520.417 533.793 515.741 534.316C519.486 533.125 522.896 532.18 526.694 531.172Z" fill="#0C0B0B"/>
<path d="M535.309 544.231C537.347 544.284 541.49 544.216 543.243 544.807C543.193 545.215 543.144 545.624 543.093 546.033C541.316 545.99 536.922 545.351 534.959 545.127L535.309 544.231Z" fill="#515151"/>
<path d="M604.732 559.712C602.394 559.701 601.998 559.665 599.697 559.254C600.545 558.317 602.191 558.32 603.764 558.004L604.732 559.712Z" fill="black"/>
<path d="M534.959 545.127C533.061 545.112 533.052 545.025 531.214 544.432L531.209 543.837C533.266 543.465 533.354 543.64 535.309 544.231L534.959 545.127Z" fill="#CAC9C9"/>
<path d="M488.455 329.871C516.094 348.804 544.824 366.094 574.495 381.652C584.402 386.961 595.936 393.479 605.95 397.986C598.619 397.303 584.461 396.22 577.805 393.942C544.131 382.419 512.74 354.314 487.207 330.94L488.455 329.871Z" fill="black"/>
<path d="M480.629 324.642C483.248 326.369 485.857 328.113 488.455 329.871L487.207 330.94C484.956 329.163 482.676 326.705 480.629 324.642Z" fill="black"/>
<path d="M574.821 286.69C586.425 279.248 609.457 263.894 622.353 261.818C631.911 271.689 642.032 287.762 656.005 291.389C665.581 293.874 674.221 295.354 683.393 299.764C683.797 301.895 687.373 305.788 689.057 307.724C693.404 312.718 695.229 318.018 698.499 323.082C700.091 322.495 699.472 322.612 700.807 320.755C702.54 323.309 701.75 331.774 703.391 335.061C714.829 357.948 741.06 377.227 766.416 364.395C786.444 372.732 796.59 360.042 796.774 340.67C819.362 363.395 832.52 381.253 867.17 383.073C878.057 383.645 890.248 383.651 900.994 384.654C889.618 389.242 881.958 394.089 874.267 403.896C897.13 388.801 919.057 382.152 946.635 388.199L944.988 393.661L943.372 398.492C942.557 402.221 942.147 404.215 941.798 408.047C942.723 412.21 943.366 414.865 944.713 418.907C953.414 441.864 969.34 472.34 992.895 483.125C999.391 486.098 1006.54 487.249 1013.59 487.956L1019.11 487.936C1023.33 488.538 1037.55 490.834 1041.08 490.122C1055.02 495.581 1075.46 499.949 1081.71 515.224C1085.33 524.064 1087.1 536.002 1085.74 545.399C1085.6 546.358 1085.74 546.34 1086.15 547.299C1085.03 547.484 1081.01 547.606 1079.66 547.683C1068.96 502.19 1041.32 512.326 1005.22 518.413C998.449 519.556 991.389 520.014 984.519 519.749C957.24 516.646 949.342 482.543 927.85 470.488C917.728 464.81 896.537 470.565 884.003 466.933C869.387 462.697 857.037 455.15 843.603 448.235C832.667 442.608 821.903 437.039 811.23 431.011C800.735 427.976 797.178 428.2 787.485 426.977C774.37 425.323 732.99 427.573 723.524 422.183C715.031 417.346 691.041 396.858 682.573 389.656C692.37 391.443 697.77 393.55 707.065 396.954C685.04 382.542 666.677 375.597 648.272 399.915C648.7 394.218 651.553 382.525 653.292 377.031C647.108 364.988 638.946 353.799 630.043 343.618C627.539 340.747 624.128 338.562 621.777 335.848C620.889 333.08 615.691 328.876 613.364 326.837C600.834 312.899 587.107 301.736 574.821 286.69Z" fill="#CAC9C9"/>
<path d="M811.23 431.01C846.567 430.443 847.803 446.524 880.115 456.684C888.105 459.197 896.947 460.382 905.28 461.113C911.997 461.703 918.641 461.781 925.058 464.068C931.64 466.416 936.575 471.043 941.553 475.63C957.565 490.391 962.151 506.885 987.005 505.867C1001.82 505.26 1012.33 503.068 1026.71 500.53C1035.18 499.109 1043.68 497.836 1052.2 496.711C1032.77 503.179 1014.42 511.84 994.359 516.565C991.413 517.259 986.937 518.211 984.519 519.749C957.241 516.646 949.342 482.543 927.85 470.488C917.729 464.81 896.537 470.565 884.003 466.933C869.387 462.697 857.037 455.15 843.603 448.235C832.667 442.608 821.903 437.039 811.23 431.01Z" fill="#969595"/>
<path d="M893.536 418.897C904.882 417.36 916.914 417.21 928.376 417.695C933.642 417.917 938.896 418.843 944.131 418.905L944.713 418.907C953.413 441.864 969.339 472.34 992.895 483.125C999.391 486.098 1006.54 487.249 1013.59 487.956C1011.59 489.051 1009.49 489.266 1007.27 489.518C963.192 494.505 940.659 467.467 936.134 426.306C923.986 425.473 904.901 422.908 893.536 418.897Z" fill="#969595"/>
<path d="M914.691 395.412C906.107 392.515 901.925 394.973 896.445 393.828C898.441 392.657 901.423 392.45 903.823 392.006C918.022 389.38 930.997 390.209 944.988 393.66L943.372 398.492C941.994 397.648 918.329 395.816 914.691 395.412Z" fill="#676767"/>
<path d="M914.691 395.412C918.328 395.816 941.994 397.649 943.372 398.492C942.557 402.221 942.147 404.215 941.798 408.047C930.342 407.014 923.3 402.193 914.691 395.412Z" fill="#969595"/>
<path d="M804.728 353.12C806.234 356.946 807.355 368.95 805.744 372.826C802.915 379.629 796.143 376.55 791.202 374.315L786.365 372.11C795.672 368.071 801.072 362.628 804.728 353.12Z" fill="#676767"/>
<path d="M662.153 311.715C669.231 312.273 672.305 314.62 677.742 318.737C673.211 316.825 671.184 315.83 666.335 314.794C660.591 314.598 655.711 316.195 650.243 317.751C654.793 315.12 657.334 313.729 662.153 311.715Z" fill="#343334"/>
<path d="M553.899 95.9268C589.485 119.767 610.079 134.735 642.167 164.119C669.457 189.11 698.725 220.193 727.063 242.539C737.252 250.463 747.722 258.022 758.45 265.201C776.372 277.091 811.763 297.437 822.87 315.172L823.752 313.89C809.865 291.513 786.597 280.298 766.324 263.688C751.047 251.172 733.517 238.13 719.011 224.849C769.698 226.749 804.158 234.09 840.627 273.172C851.22 284.523 865.762 300.503 864.348 316.243C862.615 335.498 863.037 344.756 869.663 363.301C861.372 366.046 853.443 369.773 846.04 374.403C861.898 370.616 877.984 366.853 894.271 370.294C899.31 371.359 913.43 374.04 914.924 379.491C913.265 382.556 904.778 383.368 900.994 384.654C890.248 383.651 878.057 383.645 867.17 383.073C832.52 381.253 819.362 363.395 796.774 340.671C796.59 360.042 786.444 372.732 766.416 364.395C741.06 377.227 714.829 357.948 703.391 335.061C701.75 331.774 702.54 323.309 700.807 320.755C699.472 322.612 700.091 322.495 698.499 323.082C695.229 318.018 693.404 312.718 689.057 307.724C687.373 305.788 683.797 301.895 683.393 299.764L687.704 301.018C688.91 298.654 688.58 296.883 688.488 294.192C655.515 267.259 655.111 256.952 640.189 219.886C628.666 191.264 605.69 154.099 585.03 131.175C584.995 132.682 589.037 138.607 589.98 140.43C604.633 168.757 624.036 210.36 627.38 242.096C621.012 238.665 612.005 233.665 606.312 229.283C602.938 180.35 582.216 135.422 553.899 95.9268Z" fill="#FAF9F9"/>
<path d="M688.488 294.192C693.074 297.173 696.362 299.058 701.395 301.303C702.332 301.722 708.039 304.207 708.541 304.524L707.806 306.841C701.83 305.31 693.374 303.167 687.704 301.018C688.91 298.654 688.58 296.883 688.488 294.192Z" fill="#727071"/>
<path d="M708.54 304.524C717.976 307.316 727.424 310.045 736.89 312.709C728.269 312.154 716.366 308.766 707.806 306.841L708.54 304.524Z" fill="black"/>
<path d="M823.752 313.89C825.583 317.213 827.628 320.493 828.595 324.139C827.242 323.013 823.985 317.073 822.87 315.172L823.752 313.89Z" fill="#343334"/>
<path d="M778.355 323.885C763.789 310.905 740.031 305.154 722.066 297.092C704.763 289.328 697.458 284.736 683.075 272.863C685.046 273.426 695.866 280.022 699.644 281.654C714.621 288.116 729.702 294.386 744.703 300.787L734.594 300.1C756.221 308.274 761.205 307.081 779.188 323.287L778.355 323.885Z" fill="black"/>
<path d="M779.188 323.286C781.142 325.221 783.052 327.192 784.926 329.201C782.531 327.642 780.241 326.08 778.355 323.885L779.188 323.286Z" fill="#CAC9C9"/>
<path d="M344.974 535.118C353.938 507.675 362.336 483.276 379.375 459.392C392.058 441.614 399.897 440.338 420.425 434.196C417.21 451.344 409.76 465.622 405.767 481.534C402.26 495.508 406.579 521.626 407.38 536.776C389.729 562.797 373.44 581.864 358.443 610.626C347.795 602.557 337.207 594.409 326.682 586.181C335.981 603.426 347.588 613.058 355.581 626.835C348.534 653.115 342.369 676.303 337.157 703.067C310.43 702.326 303.666 696.093 287.402 675.703C288.89 680.252 292.132 691.145 294.741 694.5C304.852 707.5 330.286 715.772 337.901 730.571C340.097 734.845 342.481 752.933 343.928 758.982C347.188 772.624 351.002 784.234 350.768 798.427C335.352 799.639 325.429 799.915 309.907 797.429C296.047 784.05 287.441 771.516 277.656 755.088C266.461 736.296 260.675 725.416 257.557 703.63C252.214 666.292 245.345 653.819 263.978 619.144C269.578 632.162 274.637 645.449 281.207 658.019C275.271 607.503 276.938 562.434 309.481 521.033C311.362 518.654 313.281 516.306 315.238 513.989C316.843 536.617 317.791 548.406 322.291 570.616L323.937 569.675C326.3 537.533 325.52 523.362 343.406 495.026C343.283 508.471 344.207 521.694 344.974 535.118Z" fill="#FAF9F9"/>
<path d="M323.937 569.675C323.814 571.703 324.119 572.371 323.165 573.834C322.557 572.312 322.538 572.237 322.292 570.616L323.937 569.675Z" fill="black"/>
<path d="M710.384 485.473C715.472 458.545 748.347 473.153 763.238 480.643C781.491 489.82 793.137 495.296 802.989 514.539C817.721 539.671 826.752 566.336 839.531 592.338L840.278 591.236C837.253 586 829.691 566.615 826.954 559.811C816.551 533.956 808.218 513.492 793.522 489.679C818.645 496.029 850.461 514.88 870.434 531.571C871.365 536.644 872.975 544.111 873.183 549.018C873.343 550.384 873.643 552.213 873.612 553.538C875.773 579.025 878.798 621.208 899.757 639.448C918.347 655.625 969.493 650.127 975.836 683.981C976.24 686.143 975.738 688.243 974.82 690.184L973.528 691.139C971.464 690.729 972.469 691.127 970.668 689.345C964.38 684.269 960.774 683.185 953.163 680.479C931.352 677.454 919.388 680.167 898.116 683.063C885.619 685.763 879.306 685.249 868.346 679.236L864.103 676.376C864.734 673.456 873.263 637.715 859.988 647.561C850.748 654.419 840.443 663.714 831.314 671.043C812.939 655.858 803.558 643.912 794.233 622.353C789.916 612.36 783.089 600.33 777.603 590.883C780.389 589.014 781.558 588.208 783.989 585.928C786.279 576.549 790.277 558.089 789.83 548.114C789.781 547.016 789.426 547.119 788.385 546.464C781.595 545.796 765.24 554.989 758.872 558.551C755.749 554.871 752.627 550.933 749.571 547.18C748.218 538.731 748.788 527.769 749.32 519.153C749.504 516.119 750.698 509.316 750.257 506.934L749.743 503.942C745.683 502.912 733.29 507.979 728.661 509.395C731.318 497.214 734.006 490.821 738.568 479.364C726.426 480.31 721.797 480.989 710.384 485.473Z" fill="#969595"/>
<path d="M873.612 553.538C875.773 579.025 878.798 621.208 899.757 639.448C918.347 655.625 969.493 650.127 975.836 683.981C976.24 686.142 975.738 688.243 974.82 690.184L973.528 691.139C971.464 690.729 972.469 691.127 970.668 689.345C970.687 687.887 970.84 684.263 970.607 682.983C966.045 659.985 933.783 658.791 915.243 653.494C878.1 642.883 874.059 600.03 871.897 566.425L872.057 558.474C872.479 555.974 872.479 555.76 873.612 553.538Z" fill="#FAF9F9"/>
<path d="M871.346 556.954L872.056 558.474L871.897 566.425C869.895 569.419 862.762 596.785 860.98 602.622C854.318 592.078 855.218 585.846 855.481 573.954C858.022 569.744 866.968 558.618 871.346 556.954Z" fill="#676767"/>
<path d="M890.695 678.421C912.016 676.027 932.258 669.604 953.015 679.285L953.383 680.075L953.162 680.479C931.352 677.454 919.388 680.167 898.116 683.063C895.294 680.76 893.573 680.442 890.144 679.279L890.695 678.421Z" fill="#FAF9F9"/>
<path d="M868.346 679.236C873.012 676.695 885.227 678.042 890.695 678.421L890.144 679.279C893.573 680.442 895.294 680.76 898.116 683.063C885.619 685.763 879.306 685.249 868.346 679.236Z" fill="#BEBDBE"/>
<path d="M840.278 591.236C842.525 595.591 849.407 606.084 850.699 609.647C846.529 605.359 841.845 597.862 839.531 592.337L840.278 591.236Z" fill="#343334"/>
<path d="M871.346 556.954C871.971 554.85 872.516 551.513 873.183 549.018C873.342 550.384 873.642 552.212 873.612 553.538C872.479 555.76 872.479 555.974 872.056 558.474L871.346 556.954Z" fill="#CAC9C9"/>
<path d="M436.936 683.289C424.779 677.172 392.006 652.3 386.78 640.93C379.308 624.667 388.34 594.144 394.894 577.844C401.842 560.564 409.567 538.913 427.637 530.245C431.559 535.25 435.841 545.488 440.1 551.633C455.636 574.045 472.39 598.483 490.386 618.777L492.436 619.567C517.145 613.591 533.719 612.415 556.199 600.016L538.864 637.66C536.852 642.044 531.005 655.913 528.471 658.785C520.598 667.694 503.084 682.334 493.027 688.696C491.011 691.078 477.406 698.389 474.169 700.017C461.441 697.293 447.75 690.398 436.936 683.289Z" fill="#CAC9C9"/>
<path d="M436.936 683.289C424.779 677.172 392.006 652.3 386.78 640.93C379.308 624.667 388.34 594.144 394.894 577.844C401.842 560.564 409.567 538.913 427.637 530.245C431.559 535.25 435.841 545.488 440.1 551.633C455.636 574.045 472.39 598.483 490.386 618.777C471.245 613.376 465.123 604.557 452.998 588.97C443.707 602.066 435.406 615.96 428.269 630.349C424.93 637.085 422.658 642.491 424.131 650.176C426.419 662.11 431.72 672.451 436.936 683.289Z" fill="#969595"/>
<path d="M492.436 619.567C517.144 613.59 533.718 612.415 556.198 600.016L538.863 637.66C536.851 642.044 531.005 655.913 528.47 658.785C520.597 667.694 503.084 682.334 493.026 688.696C491.206 683.663 516.011 651.253 519.009 641.903C522.439 631.206 523.571 630.949 523.621 618.581C511.425 617.766 498.406 621.893 486.39 624.74L492.436 619.567Z" fill="#FAF9F9"/>
<path d="M364.562 625.671C375.821 639.791 389.564 656.274 403.113 667.737C417.553 679.952 435.572 690.729 451.745 700.501C461.374 704.775 464.23 706.067 474.643 707.849C478.797 706.422 480.528 705.418 484.373 703.318C504.311 689.896 522.423 673.737 539.374 656.746C541.854 671.747 545.155 691.059 543.238 706.067C541.844 716.978 534.977 736.946 529.358 746.424C523.948 755.382 503.173 771.247 493.675 776.396C478.003 774.051 458.949 770.671 443.991 765.167C426.845 760.238 402.478 749.326 387.162 740.301C381.187 728.343 357.381 669.843 357.096 658.13C356.85 647.978 361.808 635.389 364.562 625.671Z" fill="#CAC9C9"/>
<path d="M364.562 625.671C375.821 639.791 389.564 656.274 403.113 667.737C417.553 679.952 435.572 690.729 451.745 700.501C433.943 698.395 406.893 684.22 391.46 676.089C395.458 714.737 398.152 723.371 427.729 750.477C431.876 754.28 440.282 761.217 443.991 765.167C426.845 760.238 402.478 749.326 387.162 740.301C381.187 728.343 357.381 669.843 357.096 658.13C356.85 647.978 361.808 635.389 364.562 625.671Z" fill="#969595"/>
<path d="M484.373 703.318C504.312 689.896 522.423 673.737 539.374 656.746C541.854 671.747 545.155 691.059 543.238 706.067C541.844 716.978 534.977 736.945 529.358 746.424C527.65 743.87 529.529 702.234 529.686 694.531C522.277 697.519 490.017 706.612 484.373 703.318Z" fill="#FAF9F9"/>
<path d="M1048.82 321.728C1074.34 349.604 1107.89 388.011 1104.83 427.666C1103.04 450.871 1102.93 464.156 1090.59 483.738C1102.79 475.799 1106.16 469.583 1113.62 457.375C1112.51 466.655 1112.46 468.004 1108.54 476.251C1104.44 484.861 1084.62 498.696 1089.17 508.226C1091.46 508.306 1097.1 505.297 1100.67 504.359C1098.13 509.276 1095.32 511.596 1092.44 515.799C1084.79 526.988 1106.45 541.247 1086.15 547.299C1085.74 546.34 1085.6 546.358 1085.74 545.399C1087.1 536.002 1085.33 524.064 1081.71 515.224C1075.46 499.949 1055.02 495.581 1041.08 490.122C1034.94 487.406 1015.29 479.975 1013.63 473.428C1019.35 452.468 1010.82 431.456 997.842 415.152C988.976 408.516 982.786 404.775 971.948 409.702C963.278 416.856 962.941 424.016 963.7 434.476C961.612 430.254 959.751 426.41 957.889 422.089C954.565 416.151 950.597 407.18 950.781 400.421C951.062 390.032 954.944 377.199 962.378 369.776C983.055 381.593 1002.76 404.352 1014.6 425.015C1014.61 423.421 1014.58 421.827 1014.52 420.234C1013.49 398.44 1001.04 385.599 986.111 371.846C1000.27 377.502 1017.97 384.941 1028.39 396.424C1047.43 417.385 1053.43 448.074 1058.39 475.142C1060 453.084 1057.12 439.084 1051.93 418.261C1070.07 422.247 1073.5 425.887 1071.47 444.158C1078.58 425.757 1079.14 416.676 1074.99 396.751C1074.14 398.226 1073.88 398.467 1073.35 400.101C1072.95 404.135 1072.63 408.637 1071.84 412.565L1048.17 412.703C1063.73 404.664 1064.04 402.042 1064.98 384.339C1066.13 362.53 1059.35 341.219 1049.06 322.182L1048.82 321.728Z" fill="#FAF9F9"/>
<path d="M966.799 409.087L971.948 409.702C963.278 416.856 962.941 424.016 963.7 434.476C961.612 430.254 959.751 426.41 957.89 422.089C961.006 416.776 962.561 413.59 966.799 409.087Z" fill="#969595"/>
<path d="M966.798 409.087C976.589 401.252 992.442 403.991 997.842 415.152C988.976 408.516 982.786 404.775 971.948 409.702L966.798 409.087Z" fill="#CAC9C9"/>
<path d="M1073.55 389.94C1074.42 392.348 1074.61 394.256 1074.99 396.751C1074.14 398.226 1073.88 398.467 1073.35 400.101C1073.3 396.749 1073.46 393.299 1073.55 389.94Z" fill="black"/>
<path d="M457.199 528.487C465.729 517.729 480.53 504.651 490.798 495.201C500.603 486.179 509.167 486.138 521.55 487.08C521.372 497.296 520.48 507.235 519.387 517.38C508.088 523.422 476.796 533.693 463.97 537.974C478.034 543.25 492.011 549.611 506.304 554.804C528.668 562.928 551.063 569.273 574.004 575.524L568.54 580.556C549.67 596.474 544.272 600.038 520.746 606.607C513.102 608.772 500.493 610.447 492.557 611.586C488.36 606.868 485.566 603.559 481.759 598.467C464.117 574.711 459.222 558.586 457.199 528.487Z" fill="#969595"/>
<path d="M481.759 598.467C484.392 592.34 487.504 586.93 494.026 584.327C517.1 575.116 543.126 571.684 566.909 579.406L568.539 580.556C549.669 596.474 544.271 600.038 520.745 606.607C513.102 608.772 500.493 610.447 492.557 611.586C488.36 606.868 485.565 603.559 481.759 598.467Z" fill="#CAC9C9"/>
<path d="M566.909 579.406L568.54 580.556C549.67 596.474 544.272 600.038 520.746 606.607C520.74 605.093 520.657 605.566 521.084 604.208C529.454 597.045 556.446 582.175 566.909 579.406Z" fill="#FAF9F9"/>
<path d="M303.428 358.923L303.321 359.8C287.357 379.59 273.862 397.585 260.39 419.129C257.268 424.122 246.647 442.744 242.54 445.283C223.064 457.326 197.476 460.3 176.087 465.787C190.827 467.811 216.861 468.519 231.874 469.244L227.888 478.116C220.467 476.952 213.033 475.878 205.586 474.891C185.756 472.019 163.866 466.906 144.405 464.758C191.078 423.197 248.233 387.846 303.428 358.923Z" fill="#FAF9F9"/>
<path d="M475.515 184.495C503.424 173.115 520.63 175.913 548.425 187.436C561.323 192.784 573.971 199.27 586.536 205.435C589.857 206.611 594.933 209.544 598.214 211.312C601.527 233.494 602.899 236.52 616.903 255.351C593.585 245.082 575.122 234.295 553.428 221.06C547.108 217.204 535.092 212.61 529.929 209.264L528.868 209.935C532.902 211.673 540.175 215.948 544.15 218.074C562.699 227.997 580.064 240.038 597.928 251.204L585.928 253.518C571.949 245.204 558.187 236.689 543.797 229.102C523.343 218.316 502.624 208.941 482.964 196.716C475.47 198.9 468.843 201.533 461.724 204.602C464.547 194.26 466.234 190.73 475.515 184.495Z" fill="#6E6E6E"/>
<path d="M475.515 184.495C503.424 173.115 520.63 175.913 548.425 187.436C561.324 192.784 573.971 199.27 586.536 205.435C583.378 205.47 579.589 203.607 576.518 202.514C558.479 196.099 539.972 189.557 521.196 185.613C538.834 195.839 551.036 204.94 564.373 220.393C544.762 209.205 523.364 202.061 501.706 196.067C492.663 193.564 482.895 190.499 475.515 184.495Z" fill="#FAF9F9"/>
<path d="M528.869 209.935C526.498 208.99 527.226 209.727 525.914 208.086C528.02 207.846 527.647 208.113 529.93 209.264L528.869 209.935Z" fill="#515151"/>
<path d="M463.715 429.761C463.304 429.654 501.515 455.298 505.528 457.788C485.275 482.096 473.923 490.449 446.324 504.233L424.218 515.196C420.878 506.891 417.676 498.531 414.611 490.12C416.072 485.755 417.706 481.45 419.51 477.214C422.457 470.237 425.667 463.373 429.134 456.639C438.477 438.419 444.66 437.613 463.715 429.761Z" fill="#FAF9F9"/>
<path d="M293.175 119.74C301.301 120.245 309.44 120.858 317.562 121.334C383.653 125.209 446.063 143.914 506.487 170.625C491.982 171.254 481.498 174.1 469.204 181.78C460.134 190.187 459.001 197.989 458.336 209.572C453.534 198.967 452.928 194.832 451.725 183.369C442.503 177.704 430.707 172.04 421.117 166.734C404.923 157.771 389.257 150.091 372.416 142.565C361.748 137.799 349.099 134.271 339.62 129.7C322.862 126.111 309.075 123.067 292.115 121.104C292.324 120.378 292.529 120.386 293.175 119.74Z" fill="#FAF9F9"/>
<path d="M339.62 129.7C352.336 130.572 374.64 134.965 386.68 138.927C395.928 141.971 411.802 150.752 420.86 155.546C437.116 164.027 453.233 172.773 469.204 181.78C460.134 190.187 459.001 197.989 458.336 209.572C453.534 198.967 452.928 194.832 451.725 183.369C442.503 177.704 430.707 172.04 421.117 166.734C404.923 157.771 389.257 150.091 372.416 142.565C361.748 137.799 349.099 134.271 339.62 129.7Z" fill="#676767"/>
<path d="M255.244 237.19C262.787 236.422 277.971 237.286 286.148 237.34C336.456 237.668 378.248 244.177 426.931 255.974C419.026 260.24 411.408 265.117 403.806 269.898C392.919 276.904 382.188 284.149 371.621 291.628C362.271 283.816 353.999 276.138 344.282 268.695C325.68 254.034 303.227 247.934 280.706 242.267C272.544 240.213 263.08 239.66 255.244 237.19Z" fill="#FAF9F9"/>
<path d="M687.385 595.613C687.881 596.009 688.12 596.152 688.5 596.73C689.357 598.033 689.565 599.659 689.069 601.136C686.449 608.988 663.236 621.704 655.521 625.592C676.615 622.671 692.198 619.248 712.159 611.524C717.499 617.742 724.081 623.798 729.157 630.013C722.195 631.715 714.958 633.533 707.922 634.782C701.573 635.903 695.345 636.491 688.996 637.819C700.568 639.705 718.368 638.23 730.326 637.372C738.164 636.778 738.048 637.746 742.964 643.545C699.093 649.619 660.799 645.375 619.211 631.133C648.725 624.153 663.879 613.327 687.385 595.613Z" fill="#FAF9F9"/>
<path d="M760.256 171.053C766.991 169.796 774.645 169.626 780.064 174.177C794.502 186.293 813.912 219.21 822.166 235.507C818.535 232.964 811.904 228.603 808.787 225.822C807.195 225.298 803.644 223.153 801.997 222.283C795.065 218.636 791.122 217.643 783.542 216.654C778.337 216.856 773.004 217.257 767.793 217.585C766.807 202.832 763.556 187.302 754.917 175.018C745.726 180.549 743.001 185.097 738.25 194.247C741.464 177.257 743.221 175.776 760.256 171.053Z" fill="#FAF9F9"/>
<path d="M738.25 194.247C741.464 177.257 743.221 175.775 760.256 171.053C761.272 175.027 764.156 181.372 765.803 185.374C770.273 196.242 774.039 208.79 783.817 216.091L783.542 216.654C778.337 216.856 773.004 217.257 767.793 217.585C766.807 202.832 763.556 187.301 754.917 175.018C745.726 180.549 743.001 185.097 738.25 194.247Z" fill="#676767"/>
<path d="M775.19 180.402C781.778 192.527 790.657 201.982 799.113 212.777C801.507 215.826 806.962 222.525 808.787 225.822C807.195 225.298 803.644 223.153 801.997 222.283C795.065 218.636 791.122 217.643 783.542 216.654L783.817 216.092C784.074 215.178 784.221 214.707 783.921 213.732C780.199 201.764 777.113 192.968 775.19 180.402Z" fill="#676767"/>
<path d="M117.391 622.885C147.066 632.743 161.883 635.444 193.276 639.087C192.533 648.516 192.323 658.901 192.255 668.349C175.046 661.993 160.886 654.003 145.17 644.775C148.796 648.259 152.539 651.266 156.413 654.45C164.15 661.02 172.085 667.351 180.209 673.437C183.688 676.046 187.512 678.556 191.048 681.085C192.391 682.046 192.264 684.116 192.348 685.591L191.701 686.069C186.814 684.134 181.389 680.032 177.013 676.946C154.96 661.485 134.93 643.324 117.391 622.885Z" fill="#FAF9F9"/>
<path d="M685.83 81.0825C723.989 100.511 758.143 131.25 780.248 167.975C769.202 162.334 763.715 161.341 751.971 166.38C746.436 170.139 743.607 172.835 739.229 177.788C740.778 168.161 742.297 162.111 746.54 153.343C743.289 144.672 735.464 133.133 730.112 125.693C727.54 122.128 723.107 116.621 721.405 112.856C709.318 99.737 699.607 92.0501 685.83 81.0825Z" fill="#FAF9F9"/>
<path d="M721.405 112.856C730.663 120.773 742.891 140.792 748.077 151.509C749.271 143.348 749.112 140.377 747.018 132.093C750.998 138.908 754.868 145.407 756.729 153.183C755.872 155.431 752.069 164.695 751.971 166.38C746.436 170.139 743.607 172.835 739.229 177.788C740.779 168.161 742.297 162.111 746.54 153.343C743.289 144.672 735.464 133.134 730.112 125.693C727.541 122.128 723.107 116.621 721.405 112.856Z" fill="#676767"/>
<path d="M1053.05 523.497C1057.48 524.295 1059.8 526.198 1062.61 529.45C1074.53 543.599 1064.55 554.864 1054.64 565.773C1046.92 574.268 1039.55 580.621 1030.7 587.705C1027.13 590.493 1023.89 592.792 1020.15 595.37C1030.45 574.804 1038.79 549.258 1045.29 527.16C1048.58 525.155 1049.54 524.788 1053.05 523.497Z" fill="#FAF9F9"/>
<path d="M868.021 286.327C880.984 290.147 887.572 294.839 898.557 302.963C905.084 322.897 902.464 338.617 900.523 358.866C900.48 359.788 900.627 359.3 899.812 360.217C896.42 360.198 892.979 359.177 889.642 358.389C876.949 346.394 882.845 324.312 878.62 308.558C876.208 299.561 872.914 294.218 868.021 286.327Z" fill="#FAF9F9"/>
<path d="M951.583 504.189C960.767 511.031 959.659 534.706 959.818 545.361C962.555 537.483 964.778 527.824 966.664 519.708C976.681 524.404 981.225 525.219 992.277 526.172C988.915 534.977 984.488 540.075 978.977 547.734C970.668 559.971 962.096 573.304 952.03 584.024C954.993 555.312 951.13 531.956 951.583 504.189Z" fill="#FAF9F9"/>
<path d="M601.75 664.853L602.166 665.263C602.982 673.315 579.561 728.526 574.887 739.26C571.45 733.271 565.452 724.136 564.443 717.272C564.152 715.288 565.567 714.094 566.821 712.423L578.774 697.341C573.062 701.444 567.175 706.006 561.524 710.243C560.133 706.844 559.038 703.452 557.867 699.974C575.755 686.865 585.265 680.497 601.75 664.853Z" fill="#FAF9F9"/>
<path d="M862.823 649.429L863.846 649.992C866.411 664.602 854.949 692.504 848.385 705.681C844.944 704.518 841.527 703.305 838.123 702.032C843.609 691.574 847.191 683.363 851.771 672.506C850.253 674.025 848.783 675.782 847.356 677.399C842.023 683.895 836.102 690.031 830.187 695.988C825.828 691.427 822.834 686.577 819.588 681.213C842.042 671.527 844.619 665.177 862.823 649.429Z" fill="#FAF9F9"/>
<path d="M145.917 771.296C147.437 772.282 155.999 782.128 158.134 784.173C176.114 801.421 188.864 808.126 213.1 810.863C215.643 817.464 218.068 824.554 220.469 831.241C214.512 829.826 208.753 828.295 202.959 826.281C177.893 817.543 155.691 796.106 145.917 771.296Z" fill="#FAF9F9"/>
<path d="M922.578 688.806C927.586 692.645 913.032 715.172 910.681 718.889C903.621 730.039 898.19 728.159 888.846 719.581C883.696 714.254 882.447 711.547 879.545 704.836C896.347 701.126 907.386 696.454 922.578 688.806Z" fill="#FAF9F9"/>
<path d="M278.916 301.707C304.944 305.697 325.423 307.605 351.609 309.58L335.125 323.727C328.449 322.158 322.529 320.693 315.926 318.787C310.734 317.462 305.374 315.687 300.239 314.082C309.738 319.378 318.005 324.614 326.051 331.975C304.853 322.983 296.67 316.165 278.916 301.707Z" fill="#FAF9F9"/>
<path d="M947.829 684.171C954.203 685.524 956.94 686.473 962.708 689.578C949.562 702.565 940.157 713.696 922.847 720.26C924.745 713.47 926.472 706.642 928.027 699.766C932.381 695.854 936.661 691.861 940.861 687.79C943.549 685.885 944.847 685.444 947.829 684.171Z" fill="#FAF9F9"/>
<path d="M920.968 728.704C925.976 725.856 930.703 722.085 935.326 718.601C929.405 738.078 929.277 740.123 935.063 760.77C935.528 762.417 936.471 767.475 934.781 768.742L933.685 767.677C921.807 761.768 917.092 749.914 914.894 737.619L917.147 733.51C914.961 730.547 913.877 730.075 913.032 726.371L915.824 722.017C917.502 724.356 918.996 726.61 920.968 728.704Z" fill="#FAF9F9"/>
<path d="M917.147 733.51C917.637 736.7 917.888 739.872 918.629 742.983C921.041 753.086 930.122 758.37 933.685 767.677C921.806 761.768 917.092 749.914 914.894 737.619L917.147 733.51Z" fill="#969595"/>
<path d="M786.714 548.711L787.332 549.52C787.191 554.693 782.409 579.256 781.154 584.868C778.552 586.911 777.866 587.929 774.804 587.573L773.813 586.287C773.28 581.305 778.166 568.474 779.966 562.365C777.854 563.826 767.285 573.627 764.42 576.076C761.891 572.258 759.791 568.579 757.507 564.611C766.232 558.051 776.164 551.743 786.714 548.711Z" fill="#FAF9F9"/>
<path d="M816.551 443.703C818.357 444.634 820.654 446.092 822.454 447.155C823.593 450.312 823.844 452.044 824.407 455.288C826.924 453.821 829.422 452.33 831.902 450.814C835.52 452.147 839.176 453.832 842.721 455.385C837.602 460.243 833.481 464.165 827.928 468.559C821.768 473.539 817.61 476.105 810.704 480.013C814.145 465.831 815.743 458.178 816.551 443.703Z" fill="#FAF9F9"/>
<path d="M915.585 474.158C926.76 474.916 920.925 487.309 918.935 494.479C922.259 489.587 925.658 484.74 929.111 479.939C935.601 486.363 936.238 487.505 930.495 494.63C922.7 501.523 917.936 503.894 908.323 507.789C912.462 494.112 914.103 488.014 915.585 474.158Z" fill="#FAF9F9"/>
<path d="M736.364 534.396C733.057 530.149 723.738 522.505 724.24 517.506C728.128 511.176 742.756 506.333 749.743 503.942L750.257 506.934C745.757 516.155 741.128 525.31 736.364 534.396Z" fill="#FAF9F9"/>
<path d="M854.392 240.49C857.686 243.887 869.681 275.058 869.228 279.613L860.649 279.737C849.481 265.56 852.665 258.67 854.392 240.49Z" fill="#FAF9F9"/>
<path d="M868.891 467.6C877.01 471.445 880.476 471.052 888.65 473.665C890.31 474.194 890.659 475.317 891.087 476.614C890.199 480.504 886.483 482.323 883.17 484.582C877.812 487.968 873.355 490.166 867.495 492.463C868.536 484.91 868.861 475.187 868.891 467.6Z" fill="#FAF9F9"/>
<path d="M733.676 482.053L734.717 482.138C734.894 485.752 723.175 507.674 717.437 508.07L716.586 507.312C716.164 504.537 720.444 497.74 721.944 495.077L722.219 494.155C719.415 493.598 713.617 500.188 708.161 496.211C707.065 494.229 707.144 494.374 707.236 492.097C711.026 488.095 727.626 482.985 733.676 482.053Z" fill="#FAF9F9"/>
<path d="M997.775 440.013C1003.2 448.341 1007 454.784 1010.71 464.231C1011.69 466.717 1013.1 472.217 1013.63 473.429C1015.29 479.975 1034.94 487.406 1041.08 490.122C1037.55 490.834 1023.33 488.538 1019.11 487.936C1004.25 476.178 1009.19 458.768 997.463 442.185L997.775 440.013Z" fill="#959595"/>
<path d="M647.58 402.018C657.046 399.401 667.075 390.87 677.907 394.288L678.091 395.221C667.994 403.026 660.646 403.711 649.759 413.737C649.625 408.259 647.947 406.284 647.58 402.018Z" fill="#FAF9F9"/>
<path d="M912.769 685.408C914.367 685.12 918.61 685.095 920.428 685.034C914.122 688.757 908.77 691.035 902.102 693.833C900.853 694.298 901.533 694.219 900.039 693.919C898.759 691.812 897.492 689.7 896.249 687.575C901.765 686.92 907.27 686.198 912.769 685.408Z" fill="#969595"/>
<path d="M928.199 683.914C934.738 683.516 941.302 683.601 947.829 684.171C944.847 685.444 943.549 685.885 940.861 687.789C937.408 688.077 931.83 690.049 928.554 691.188L928.199 683.914Z" fill="#CAC9C9"/>
<path d="M909.756 353.304C910.209 353.874 910.295 355.927 910.16 356.702C909.26 361.778 908.385 361.719 904.393 361.373L903.633 361.098C903.578 359.787 908.354 354.948 909.756 353.304Z" fill="#FAF9F9"/>
<path d="M893.187 688.194C894.148 689.565 894.963 695.217 894.602 696.913L893.854 696.882C892.146 695.327 890.37 694.109 889.807 691.929C890.75 689.498 890.775 690.067 893.187 688.194Z" fill="#969595"/>
<path d="M292.115 121.104C289.535 121.16 277.1 119.761 274.6 119.144C277.426 118.483 290.083 119.072 293.175 119.74C292.528 120.386 292.324 120.378 292.115 121.104Z" fill="#A3A4A3"/>
<path d="M997.463 442.185C996.409 440.59 988.621 429.548 988.56 429.286L988.902 429.037C992.736 432.258 994.854 435.897 997.775 440.013L997.463 442.185Z" fill="#343334"/>
<path d="M648.094 544.496C644.42 546.672 640.869 548.061 636.736 549.142L635.688 547.959C639.815 546.77 643.948 545.616 648.094 544.496Z" fill="#A3A4A3"/>
<path d="M707.604 824.499C731.184 824.572 754.77 824.952 778.343 825.638C789.15 833.212 802.101 844.601 812.424 853.222C814.194 844.889 815.798 836.525 817.243 828.136C844.166 828.742 872.706 830.787 899.708 832.238C902.347 836.372 904.901 840.554 907.362 844.797C907.491 840.927 907.827 836.996 908.109 833.133C944.29 834.663 982.088 839.996 1018.2 843.34C1019.79 843.487 1024.58 847.834 1027.52 848.814C1027.87 846.769 1027.77 846.879 1029.19 845.385C1030.07 845.072 1030.94 844.797 1031.89 844.925C1064.81 849.512 1097.84 853.381 1130.72 858.243C1135.05 858.886 1139.38 859.535 1143.61 860.637C1154.71 871.628 1171.19 886.158 1181 897.437C1183.03 899.77 1191.31 938.461 1192.56 943.672C1202.66 986.203 1213.02 1028.68 1223.62 1071.09C1218.75 1075.65 1213.23 1079.87 1208.29 1084.38C1196.47 1095.16 1187.61 1103.42 1172.53 1109.6C1156.39 1116.21 1140.73 1125.19 1124.42 1131.74C1046.93 1115.71 965.562 1104.92 887.009 1096.04C865.45 1093.59 843.315 1092.04 821.664 1090.42C819.851 1090.28 816.667 1090.12 815.639 1088.9L817.121 1086.52C803.478 1082.67 783.799 1085.02 772.826 1094.78C775.851 1102 774.865 1108.23 781.901 1114.07C791.6 1122.11 799.333 1126.17 811.775 1125.84C794.992 1139.29 782.421 1145.22 760.654 1139.09C752.78 1147.94 745.579 1150.13 733.988 1149.44C723.126 1148.79 714.437 1146.55 704.812 1141.61C702.773 1145.15 700.538 1148.58 698.119 1151.88C684.899 1169.72 670.908 1177.84 649.122 1181.09C633.876 1181.69 615.403 1179.97 602.839 1171.03C590.214 1162.04 593.606 1163.13 577.535 1160.32C562.333 1157.65 553.647 1147.46 543.208 1136.68L536.772 1135.84C499.212 1130.94 475.044 1124.42 451.235 1093.44C467.804 1099.88 486.931 1105.11 503.556 1096.47C501.243 1092.24 499.765 1089.2 496.194 1085.76C484.335 1074.31 459.14 1076.14 443.371 1076.36C438.075 1070.27 432.88 1064.09 427.789 1057.84C426.383 1069.68 423.811 1084.06 421.9 1095.89C398.747 1097.16 365.959 1101.43 342.842 1104.44C296.55 1110.22 250.461 1117.52 204.648 1126.32C169.908 1133.19 137.662 1141.3 103.492 1148.58C81.914 1137.99 58.5938 1127.39 36.7397 1117.18L98.1003 868.377C138.428 859.841 178.546 853.516 219.473 848.893C239.867 846.585 260.88 843.621 281.324 842.152L285.052 853.559C286.94 849.408 288.754 844.974 290.555 840.762C341.829 835.992 393.197 832.287 444.626 829.655L448.438 833.702L449.277 833.72L450.98 829.869C454.915 827.714 588.722 825.289 602.144 825.111C619.34 824.272 640.122 824.744 657.615 824.744C665.924 831.589 674.147 838.539 682.279 845.587C690.637 838.037 698.548 831.21 707.604 824.499Z" fill="black"/>
<path d="M428.448 845.862C434.098 845.293 438.386 850.847 442.584 854.49C448.633 859.737 454.588 865.211 460.585 870.532C459.443 891.381 457.046 917.129 454.839 937.978C419.874 966.444 427.293 963.1 382.258 966.327C379.046 992.454 375.713 1020.86 373.273 1046.99L322.713 1052.65L337.706 939.557C340.695 915.702 343.642 884.548 347.803 861.439C335.239 886.513 323.514 912.836 310.975 938.082C305.149 949.807 296.763 964.919 292.569 976.785C290.559 982.468 288.279 999.128 287.178 1005.89C284.404 1023.54 281.454 1041.17 278.329 1058.76L228.476 1066.67C231.716 1048.62 235.075 1030.59 238.551 1012.59C239.756 1006.2 243.463 988.284 243.42 982.474C243.347 972.322 238.855 953.775 236.707 943.341C232.194 921.09 227.541 898.87 222.747 876.686C221.259 881.486 219.642 890.848 218.595 896.059L211.436 931.744L187.834 1049.65C186.059 1058.31 184.356 1066.98 182.727 1075.67C167.083 1079.31 148.247 1083 132.411 1086.07L152.813 989.215C145.326 990.777 137.777 992.503 130.301 994.156C122.692 1026.98 115.268 1059.84 108.029 1092.75C90.9107 1096.8 73.9927 1101.7 56.8242 1105.73C75.1671 1031.05 93.1248 956.267 110.697 881.401C126.198 878.382 141.731 875.535 157.294 872.865C153.423 896.096 146.175 926.203 141.013 949.685L161.368 945.57C166.659 921.109 172.544 894.577 176.981 870.024C185.843 868.469 197.795 867.305 206.895 866.16C227.037 863.601 247.193 861.146 267.361 858.794C270.267 878.523 274.085 897.994 277.067 917.649C286.709 897.602 295.7 875.957 304.603 855.5C316.681 853.657 336.764 852.781 349.492 851.789C375.794 849.597 402.113 847.626 428.448 845.862Z" fill="#FAF9F9"/>
<path d="M355.886 859.284C363.936 857.937 375.912 857.392 384.354 856.786C399.012 855.671 413.681 854.692 428.357 853.847C434.904 858.996 446.039 868.952 451.947 874.739C449.596 890.965 448.167 916.908 446.679 933.936C444.058 936.232 441.123 938.577 438.416 940.806C432.658 945.496 424.007 953.114 416.861 954.559C403.601 957.228 388.097 957.541 374.541 958.447C371.908 984.421 368.972 1013.74 365.371 1039.53L332.592 1043.16C336.803 1011.39 340.508 976.185 345.604 944.749C348.04 916.914 353.42 887.432 355.886 859.284Z" fill="#969595"/>
<path d="M345.604 944.75C365.184 943.482 385.026 942.515 404.63 942.031C415.378 941.768 427.831 940.647 438.416 940.806C432.658 945.497 424.007 953.114 416.861 954.559C403.601 957.228 388.097 957.541 374.541 958.447C371.908 984.421 368.972 1013.74 365.371 1039.53L332.592 1043.16C336.803 1011.39 340.508 976.185 345.604 944.75Z" fill="black"/>
<path d="M404.499 877.696L410.52 877.488L420.267 887.077C419.05 899.121 417.922 911.171 416.882 923.233C413.514 926.374 410.484 929.319 406.771 932.056C402.987 932.473 397.978 932.595 394.087 932.797C388.403 933.293 382.708 933.642 377.006 933.838C378.562 915.934 381.865 896.494 382.818 878.725L404.499 877.696Z" fill="#FAF9F9"/>
<path d="M396.178 886.244L407.309 885.742L411.659 890.738C410.91 899.868 410.042 910.932 408.407 919.829C406.057 922.113 405.836 922.462 402.97 923.876C397.555 924.262 392.13 924.488 386.701 924.562C387.141 918.206 389.626 892.287 390.934 887.456C392.884 886.109 393.43 886.507 396.178 886.244Z" fill="black"/>
<path d="M97.0105 974.171C109.646 972.603 191.903 960.363 196.925 962.996C189.849 997.212 181.78 1034.56 175.79 1068.79L143.254 1075.52L163.178 978.99C150.493 981.255 136.008 984.053 123.431 987.207C115.35 1019.32 108.586 1053.51 101.286 1085.9C90.3315 1088.96 79.3229 1091.82 68.2646 1094.48C78.0646 1054.43 87.6465 1014.33 97.0105 974.171Z" fill="black"/>
<path d="M183.622 877.39C193.978 875.773 204.364 874.353 214.774 873.122C210.762 890.273 208.095 908.085 204.337 925.327C201.605 937.861 199.214 950.37 196.924 962.996C191.903 960.363 109.646 972.603 97.0103 974.171C99.2544 966.572 101.552 955.606 103.473 947.591C108.291 927.844 112.803 908.03 117.007 888.142C124.588 886.127 138.329 884.186 146.775 882.558C145.681 889.789 143.296 899.733 141.751 907.038L130.083 960.602C142.689 957.73 155.333 955.036 168.013 952.514C173.613 927.556 178.817 902.513 183.622 877.39Z" fill="#969595"/>
<path d="M309.615 862.762C318.868 862.033 330.191 861.47 339.242 860.38C321.964 898.312 301.949 935.583 284.856 973.05C273.769 972.866 262.679 972.866 251.592 973.056L230.01 870.807C239.168 870.073 251.661 869.13 260.629 867.428C264.215 892.832 270.724 921.604 272.944 945.864C274.719 942.447 276.462 938.871 277.992 935.344C288.402 911.36 300.749 887.34 309.615 862.762Z" fill="#969595"/>
<path d="M251.592 973.056C262.679 972.866 273.769 972.866 284.856 973.05C282.55 979.963 280.318 995.332 279.081 1002.91L271.099 1051.77C260.702 1053.57 249.246 1055.12 238.777 1056.64C241.701 1042.61 243.933 1028.05 246.746 1013.95C249.269 1001.31 253.056 985.749 251.592 973.056Z" fill="black"/>
<path d="M714.364 839.733C732.623 840.015 751.886 840.7 770.059 840.719C779.85 848.458 792.041 858.573 800.931 867.305C802.144 881.229 802.236 895.281 803.136 909.132C787.693 910.791 769.973 913.436 754.813 914.544C754.684 907.019 755.909 885.803 751.298 880.788C749.185 878.492 740.717 879.251 737.117 879.324C735.249 880.782 734.3 881.517 732.653 883.2C732.188 901.992 734.111 924.984 734.098 944.284C734.098 952.832 734.784 982.473 735.996 988.443C739.689 992.074 753.435 992.864 756.6 989.766C758.695 983.649 757.286 965.641 756.876 958.361C773.402 958.863 789.824 960.571 806.289 961.459C806.43 971.636 806.92 991.327 808.138 1001.38C808.254 1005.53 808.316 1009.32 808.781 1013.46C809.118 1010.71 809.92 1005.56 810.042 1003C814.218 977.434 817.396 950.744 821.046 925.058C824.768 898.814 829.459 871.316 832.269 845.042C850.975 844.968 871.083 846.566 889.74 847.668C893.738 863.705 899.733 882.502 904.466 898.575L934.242 997.94C938.884 1013.2 946.409 1034.61 949.893 1049.33C932.809 1047.39 915.708 1045.63 898.588 1044.03C895.281 1028 889.924 1008.8 885.803 992.742C877.586 992.46 868.689 991.707 860.411 991.205C858.31 1005.84 857.178 1025.38 855.959 1040.37L805.615 1037.16L809.099 1010.46C800.729 1016.2 786.53 1028.86 778.294 1035.85L749.094 1035.09C751.004 1032.37 753.527 1029.44 755.651 1026.83C762.062 1027.12 768.473 1027.33 774.884 1027.48C783.254 1020.57 791.551 1013.58 799.78 1006.5C799.639 994.64 798.641 981.567 798.268 969.499C787.375 968.819 776.592 967.876 765.669 967.38C765.497 975.432 765.816 984.635 765.901 992.778C763.911 994.97 761.67 997.175 759.582 999.299L735.011 999.195L727.412 992.215C725.563 970.931 725.483 939.404 724.932 917.643C716.966 918.181 701.977 919.143 694.194 920.337C694.66 951.362 695.413 982.382 696.448 1013.39L687.618 1016.95C687.539 1014.41 687.349 1010.14 687.698 1007.72C688.261 1003.82 689.927 998.957 689.669 995.032C688.849 994.775 688.096 994.487 687.306 994.132C687.043 989.882 686.957 985.376 686.951 981.096C686.877 942.784 684.367 904.227 684.716 865.94C694.28 856.847 704.169 848.103 714.364 839.733Z" fill="#FAF9F9"/>
<path d="M717.425 848.054C734.172 848.256 750.924 848.569 767.671 848.997C776.035 855.592 785.244 864.127 793.02 871.389C793.871 879.649 793.896 893.108 794.22 901.735L762.962 905.703C762.766 897.039 762.429 888.374 761.964 879.716L753.465 871.181L733.235 871.322C730.149 873.789 726.806 876.814 723.787 879.429C724.424 892.073 724.307 904.858 724.932 917.643C716.966 918.181 701.977 919.143 694.194 920.337C693.08 905.672 693.386 884.186 693.178 869.105C700.874 862.039 709.104 854.287 717.425 848.054Z" fill="#969595"/>
<path d="M839.61 853.008C853.987 853.504 869.583 853.828 883.801 855.433C889.33 875.516 895.085 895.539 901.067 915.487C903.951 927.317 908.942 942.368 912.493 954.314L938.014 1039.63C927.164 1038.42 916.295 1037.36 905.415 1036.45C901.092 1019.18 896.622 1001.93 892.012 984.733C878.994 984.286 865.56 983.147 852.536 982.21C851.936 997.328 849.787 1016.29 848.415 1031.64C837.333 1030.71 826.232 1030.28 815.094 1029.26C821.033 990.678 826.128 950.266 831.534 911.507C833.965 894.136 836.488 869.846 839.61 853.008Z" fill="black"/>
<path d="M839.61 853.008C853.987 853.504 869.583 853.828 883.8 855.433C889.33 875.516 895.085 895.539 901.067 915.487C895.251 914.355 881.431 914.183 875.308 914.049C871.836 900.596 868.138 887.211 864.213 873.887C860.508 889.728 859.761 896.898 858.439 912.867C850.681 911.979 839.568 911.832 831.534 911.507C833.965 894.136 836.488 869.846 839.61 853.008Z" fill="#969595"/>
<path d="M864.213 873.887C868.138 887.211 871.836 900.596 875.308 914.048C879.912 929.656 884.345 951.099 887.976 967.288C876.44 966.866 864.917 966.278 853.399 965.531C854.208 949.237 856.767 929.295 858.439 912.867C859.761 896.898 860.508 889.728 864.213 873.887Z" fill="#FAF9F9"/>
<path d="M866.65 913.62C868.432 917.679 877.776 956.683 876.79 958.636L874.42 958.9L862.211 958.183C863.448 944.174 864.691 927.458 866.65 913.62Z" fill="black"/>
<path d="M1046.31 863.239C1059.78 864.715 1129.26 871.983 1136.39 876.496C1143.02 880.678 1164.44 900.547 1167.62 907.172C1171 914.226 1171.98 923.496 1173.67 931.15C1176.13 942.202 1178.65 953.248 1181.22 964.276L1196.36 1026.99C1199.2 1038.64 1202.62 1051.49 1204.92 1063.15L1191.53 1074.78L1177.95 1086.65C1169.17 1085.47 1156.07 1082.38 1147.03 1080.63L1085.87 1068.9C1072.02 1000.48 1058.83 931.915 1046.31 863.239Z" fill="#FAF9F9"/>
<path d="M1056.31 872.718C1067.71 873.961 1124.34 879.882 1130.52 882.747C1138.42 886.415 1152.3 900.474 1157.92 907.38C1163.35 914.042 1171.08 957.693 1174.08 969.29C1180.99 999.367 1188.21 1029.37 1195.72 1059.31C1189.01 1064.49 1181.43 1071.92 1174.58 1077.64C1147.45 1072.85 1119.8 1067.03 1092.6 1061.99C1091.07 1049.91 1086.95 1031.46 1084.59 1019.14C1079.65 993.262 1074.55 967.417 1069.28 941.602C1065.15 920.931 1059.38 893.273 1056.31 872.718Z" fill="#FAF9F9"/>
<path d="M1069.28 941.602L1069.89 940.286C1074.39 940.078 1094.28 945.38 1100.53 946.384C1106.99 977.544 1114.35 1010.46 1120.33 1041.58L1150.63 1047.32C1153.44 1044.57 1156.48 1041.7 1159.13 1038.82C1153.34 1010.86 1146.6 983.116 1141.04 955.159C1150.66 958.845 1164.93 964.564 1174.08 969.291C1180.99 999.367 1188.21 1029.37 1195.72 1059.31C1189.01 1064.49 1181.43 1071.92 1174.58 1077.64C1147.45 1072.85 1119.8 1067.03 1092.6 1061.99C1091.07 1049.91 1086.95 1031.46 1084.59 1019.14C1079.65 993.262 1074.55 967.417 1069.28 941.602Z" fill="black"/>
<path d="M1056.31 872.718C1067.71 873.961 1124.34 879.882 1130.52 882.747C1138.42 886.415 1152.3 900.474 1157.92 907.38C1163.35 914.042 1171.08 957.693 1174.08 969.29C1164.93 964.563 1150.66 958.844 1141.04 955.158C1131.3 912.101 1139.47 906.266 1091.53 901.116C1094.85 915.561 1097.58 931.683 1100.53 946.384C1094.28 945.38 1074.39 940.077 1069.89 940.286L1069.28 941.602C1065.15 920.931 1059.38 893.273 1056.31 872.718Z" fill="#969595"/>
<path d="M1102.01 910.424C1112.51 912.114 1116.37 911.116 1124.36 918.261C1128.26 932.191 1133.08 959.047 1136.43 974.232L1145.05 1013.14C1145.96 1017.29 1150.47 1033.78 1148.87 1037.06C1144.5 1039.04 1132.87 1035.84 1127.53 1034.72C1124.15 1021.55 1121.12 1004.77 1118.34 991.217L1102.01 910.424Z" fill="black"/>
<path d="M925.621 850.448C936.269 850.748 1005.05 856.608 1010.13 859.161C1020.58 864.415 1034.83 879.135 1043.92 887.193C1046.7 905.029 1050.23 923.637 1053.32 941.467C1048.71 945.172 1044.12 949.188 1039.61 953.04C1045.8 958.63 1053.17 964.582 1059.61 970.025C1064.77 1002.26 1072.08 1035.38 1077.99 1067.59C1061.08 1064.76 1044.14 1062.09 1027.18 1059.56C1026.35 1052.8 1024.75 1044.53 1023.59 1037.72C1019.74 1017.54 1015.33 993.991 1012.37 973.76C1004.74 972.976 997.12 972.058 989.515 970.999C993.128 998.81 998.351 1028.54 1002.69 1056.4C986.16 1053.79 968.409 1051.73 951.767 1049.51C947.211 1023.38 944.125 993.238 940.537 966.615C935.4 928.431 929.65 888.699 925.621 850.448Z" fill="#FAF9F9"/>
<path d="M935.124 859.443C954.595 860.692 987.911 863.142 1007.47 866.95C1012.49 867.93 1031.37 886.366 1036.28 891.461C1037.87 901.962 1040.58 920.411 1042.95 930.379L1044.26 937.635C1038.22 942.294 1032.32 947.132 1026.58 952.146C1034.57 959.427 1043.46 966.689 1051.66 974.085C1056.83 1001.82 1062.15 1029.52 1067.63 1057.18C1058.86 1056.5 1043.83 1053.64 1034.58 1052.32C1030.59 1024.01 1023.85 994.916 1019.82 966.223C1006.3 964.252 992.736 962.568 979.136 961.172C983.239 989.411 988.168 1018.36 992.558 1046.64C983.282 1044.99 968.599 1043.31 959.2 1042.47C957.522 1026.25 954.43 1007.46 952.213 991.132C949.183 967.246 945.986 943.372 942.631 919.523C939.98 902.225 936.802 876.637 935.124 859.443Z" fill="black"/>
<path d="M935.124 859.443C954.595 860.692 987.911 863.142 1007.47 866.95C1012.49 867.93 1031.37 886.366 1036.28 891.461C1037.87 901.962 1040.58 920.411 1042.95 930.379C1033.23 928.597 1022.21 926.442 1012.4 925.683C1013.08 929.246 1013.32 932.246 1013.65 935.847L1007.03 940.598C996.22 939.392 985.333 937.935 974.526 936.618C973.852 931.634 973.044 926.564 972.309 921.58C964.502 920.257 954.84 919.798 946.893 918.776C944.707 918.494 943.917 918.408 942.631 919.523C939.98 902.225 936.802 876.637 935.124 859.443Z" fill="#969595"/>
<path d="M967.288 885.809C977.532 886.476 988.168 887.683 998.418 888.699C1002.39 892.042 1004.66 894.216 1008.26 897.969C1009.29 906.315 1011.78 918.463 1012.4 925.682C1013.08 929.246 1013.32 932.246 1013.65 935.847L1007.03 940.598C996.219 939.392 985.333 937.935 974.525 936.618C973.852 931.634 973.044 926.564 972.309 921.58C970.748 910.846 969.229 895.967 967.288 885.809Z" fill="#FAF9F9"/>
<path d="M976.957 895.122C987.47 895.845 993.189 894.608 1000.24 901.894C1001.87 911.844 1003.27 921.825 1004.46 931.83C996.856 931.138 989.27 930.305 981.702 929.325C980.955 919.957 978.395 904.49 976.957 895.122Z" fill="black"/>
<path d="M549.062 841.588L558.467 841.38C558.238 854.538 557.472 868.462 556.955 881.657C541.808 881.743 524.819 882.71 509.581 883.292C509.423 892.036 508.697 901.71 508.168 910.478C523.435 910.05 538.345 909.303 553.654 909.223C553.576 922.516 552.929 936.783 552.392 950.082C536.836 950.395 521.284 950.872 505.738 951.497L503.547 993.629C519.859 992.901 536.176 992.313 552.497 991.86C551.914 1005.4 551.435 1018.95 551.059 1032.5C551.023 1034.49 551.389 1033.67 550.355 1035.17C537.752 1036.12 523.306 1036.33 510.547 1036.88L451.059 1039.68C451.757 1021.91 453.773 1002.29 455.209 984.433L461.63 899.108C462.96 881.278 464.743 862.168 465.522 844.411C492.613 842.886 521.889 842.36 549.062 841.588Z" fill="#FAF9F9"/>
<path d="M467.262 937.53C492.999 935.969 518.747 933.544 544.536 931.934C544.479 934.156 544.192 939.832 544.511 941.761C529.58 942.71 512.967 942.802 497.7 943.518C496.933 963.069 495.546 982.736 494.632 1002.31C510.963 1001.61 527.298 1001 543.636 1000.47C543.383 1009.4 543.004 1018.32 542.5 1027.23C515.242 1027.92 487.172 1030.1 460.243 1030.56C460.568 1019.13 462.012 1005.06 462.968 993.556C464.579 974.893 466.011 956.218 467.262 937.53Z" fill="black"/>
<path d="M473.278 852.108L549.714 849.83L548.984 873.685C533.247 874.053 517.238 874.855 501.578 875.082C501.305 889.918 499.749 904.65 499.419 919.253C514.399 918.58 530.005 917.765 544.953 917.814C544.958 921.898 545.354 939.539 544.511 941.762C544.192 939.833 544.478 934.157 544.535 931.934C518.747 933.544 492.999 935.969 467.262 937.53C469.24 909.842 470.698 879.484 473.278 852.108Z" fill="#969595"/>
<path d="M754.592 1009.87C756.588 1009.62 756.613 1009.25 757.911 1010.09C739.627 1024.71 724.179 1039.11 713.249 1060.06C742.658 1056.59 775.263 1059.87 804.544 1063.69C774.92 1068.26 742.909 1066.14 722.305 1092.56C725.489 1096.78 727.663 1099.04 731.392 1102.85C708.13 1103.6 686.161 1106.05 663.077 1108.89C660.058 1103.69 656.642 1099.73 650.88 1097.42C645.945 1095.45 640.416 1095.56 635.56 1097.72C628.127 1101.07 625.53 1106.34 623.038 1113.41C606.367 1114.91 588.667 1116.96 572.024 1118.95C576.172 1110.35 575.711 1104.19 573.361 1095.39C558.043 1111.39 540.443 1117.1 519.204 1119.24C529.042 1120.22 538.524 1121.17 548.31 1122.53C530.97 1124.78 512.694 1120.93 496.225 1115.75L488.525 1112.59C500.355 1114.42 518.564 1113.83 530.04 1109.88C538.191 1107.08 541.519 1102.55 544.95 1095.23L526.836 1092.74C528.804 1091.79 546.108 1084.91 545.88 1085.13L541.531 1082.31C547.34 1081.98 550.922 1081.54 556.667 1080.58C542.387 1064.9 514.69 1058.97 494.218 1056.84C503.995 1055.57 515.346 1055.66 525.211 1055.53C550.744 1055.19 573.348 1056.57 598.329 1061.66C596.605 1057.27 595.803 1054.5 594.587 1049.92C597.829 1039.36 607.883 1025.93 614.656 1016.93C612.746 1024.24 607.262 1043.37 618.709 1045.95C626.498 1047.57 633.546 1042.9 639.43 1038.55C650.702 1030.2 661.644 1021.32 673.474 1013.83C665.624 1026 662.716 1034.45 659.654 1048.43C693.264 1025.44 713.929 1016.54 754.592 1009.87Z" fill="#FAF9F9"/>
<path d="M560.38 1083.64C563.759 1084.33 569.582 1089.17 571.416 1092.13C568.441 1092.25 561.912 1086.36 560.38 1083.64Z" fill="#FAF9F9"/>
<path d="M564.569 841.282C593.499 840.982 621.428 840.345 650.518 840.725C660.266 848.513 670.21 857.428 679.56 865.737C680.283 883.856 680.325 901.998 679.689 920.122C676.168 923.3 672.194 926.576 668.569 929.687C672.494 933.275 677.025 936.826 681.177 940.2C681.66 959.157 681.966 978.114 682.083 997.077L673.455 1001.49C673.559 981.739 673.002 963.149 672.616 943.445C667.357 939.441 660.977 934.414 656.17 930.011C627.379 930.881 600.119 931.652 571.291 932.001L569.315 1026.23L592.519 1026.15L587.817 1034.28C578.769 1034.55 569.719 1034.74 560.667 1034.84C561.146 997.175 561.864 959.512 562.822 921.849L564.569 841.282Z" fill="#969595"/>
<path d="M564.569 841.282C593.499 840.982 621.428 840.345 650.518 840.725C660.266 848.513 670.21 857.428 679.56 865.737C680.283 883.856 680.325 901.998 679.689 920.122C676.168 923.3 672.194 926.576 668.569 929.687C672.494 933.275 677.025 936.826 681.177 940.2C681.66 959.157 681.966 978.114 682.083 997.077L673.455 1001.49C673.559 981.739 673.002 963.149 672.616 943.445C667.357 939.441 660.977 934.414 656.17 930.011L656.256 929.338C658.062 927.323 668.802 918.922 671.625 916.589L671.631 908.115C671.655 896.383 672.078 880.965 671.245 869.503C664.43 863.227 654.713 854.349 647.481 848.562C622.505 848.495 597.533 848.721 572.564 849.242C572.122 876.526 571.234 904.827 571.291 932.001L569.315 1026.23L592.519 1026.15L587.817 1034.28C578.769 1034.55 569.719 1034.74 560.667 1034.84C561.146 997.175 561.864 959.512 562.822 921.849L564.569 841.282Z" fill="#FAF9F9"/>
<path d="M642.7 923.141C649.698 919.247 664.743 910.571 671.631 908.115L671.625 916.59C668.802 918.922 658.062 927.323 656.256 929.338C653.482 929.564 645.669 924.77 642.7 923.141Z" fill="black"/>
<path d="M616.291 872.228L633.001 872.044C635.884 874.634 638.799 877.445 641.64 880.102C641.738 890.885 642.056 902.39 641.407 913.087C636.46 917.845 634.941 918.482 628.439 918.849C619.603 918.947 610.763 918.972 601.927 918.923C601.947 903.413 602.11 887.897 602.418 872.387L616.291 872.228Z" fill="#FAF9F9"/>
<path d="M610.778 880.414C615.078 880.304 619.475 880.482 623.743 880.274C638.591 879.557 634.538 899.524 632.927 910.234C629.18 910.791 614.754 910.552 610.352 910.564L610.778 880.414Z" fill="black"/>
<path d="M668.563 1120.7C678.134 1119.61 687.698 1118.47 697.25 1117.27C696.331 1122.94 695.327 1126.88 693.441 1132.35C692.964 1133.53 692.456 1134.69 691.923 1135.84C669.702 1183.35 604.83 1179.12 587.838 1129.32C599.171 1128.43 613.223 1126.73 624.539 1125.25C626.933 1130.1 629.223 1133.19 634.084 1135.9C638.818 1138.57 644.439 1139.19 649.631 1137.61C658.289 1134.94 660.757 1129.67 663.959 1122.4C664.608 1120.92 666.708 1121.01 668.563 1120.7Z" fill="#FAF9F9"/>
<path d="M668.563 1120.7C678.134 1119.61 687.698 1118.47 697.25 1117.27C696.331 1122.94 695.327 1126.88 693.441 1132.35C683.853 1131.91 672.28 1131.1 668.563 1120.7Z" fill="#FAF9F9"/>
<path d="M601.647 941.798C612.353 941.608 623.203 941.314 633.894 941.571C636.57 943.806 639.27 946.409 641.842 948.791C642.565 969.462 641.083 1001.58 643.599 1020.42L635.725 1025.98C632.67 1007.77 633.576 988.18 633.686 969.652C633.668 963.896 633.692 959.175 633.086 953.42C631.892 952.128 630.263 950.817 628.91 949.648C622.873 949.678 616.193 950.131 610.111 950.413L609.757 1006.9L601.288 1015.38C601.222 990.856 601.342 966.327 601.647 941.798Z" fill="#FAF9F9"/>
<path d="M741.513 1101.5C754.537 1102.76 761.903 1114.58 771.896 1122.29C777.119 1126.33 778.588 1127.46 784.522 1130.93C770.69 1127.55 757.55 1121.01 744.232 1120.92L743.601 1121.11C741.317 1121.8 738.366 1122.72 737.203 1124.94C737.791 1129.61 744.924 1129.25 748.432 1134.9C748.72 1139.35 744.128 1141.53 740.075 1141.48C731.392 1141.4 722.091 1121.28 728.294 1115.26C730.492 1114.84 732.519 1115.88 734.686 1116.67C735.152 1108.88 734.343 1105.72 741.513 1101.5Z" fill="#FAF9F9"/>
<path d="M641.181 1107.42C646.649 1105.99 652.233 1109.28 653.641 1114.76C655.05 1120.23 651.749 1125.81 646.269 1127.2C640.814 1128.59 635.26 1125.31 633.858 1119.85C632.456 1114.39 635.732 1108.83 641.181 1107.42Z" fill="#FAF9F9"/>
<path d="M707.304 1114.5L717.058 1114.09C716.721 1122.74 719.856 1129.27 719.617 1133.49C714.896 1130.61 710.481 1126.87 706.41 1123.14C707.034 1119.94 707.108 1117.73 707.304 1114.5Z" fill="#FAF9F9"/>
<path d="M563.258 1130.57C573.227 1133.43 574.55 1137.09 579.84 1145.76C569.103 1145.1 566.952 1139.52 563.258 1130.57Z" fill="#FAF9F9"/>
<path d="M155.54 491.683C169.937 493.835 190.21 499.806 204.151 503.904C199.597 516.744 195.447 529.725 191.707 542.825L188.234 556.869C178.671 540.996 174.036 525.112 164.682 509.435C161.029 503.313 158.309 498.266 155.54 491.683Z" fill="black"/>
<path d="M955.82 250.044C957.749 241.232 954.681 241.969 954.014 233.28C953.781 230.187 953.426 226.118 955.465 223.572C959.071 222.448 955.373 224.243 960.706 224.716L962.47 225.674C963.645 231.008 967.919 256.196 971.924 258.188L972.701 257.666C973.216 254.442 972.977 247.565 972.952 244.003C981.023 235.435 986.374 230.495 999.159 232.157C1001.48 235.769 1001.58 241.056 1007.05 244.235C1008.64 245.161 1008.64 242.681 1009.84 245.321C1009 246.632 1009.53 246.039 1007.33 246.564C1000.58 245.188 1000.98 234.747 994.946 232.651L993.452 232.907C996.238 235.868 1000.94 240.322 998.106 245.099L997.39 245.15C996.024 242.028 994.493 237.536 991.505 235.885C991.64 237.345 991.346 236.74 992.546 237.743C994.077 239.022 994.818 241.764 995.467 243.7C995.155 244.258 994.836 244.811 994.512 245.361C999.673 249.539 1000.08 246.622 1005.03 247.906L1005.96 249.105L1005.14 250.19C1007.79 253.029 1017.63 251.686 1014.22 260.628C1015.65 261.633 1015.19 261.35 1016.89 261.938C1017.83 264.775 1017.27 267.216 1018.75 268.752C1022.86 268.771 1026.48 266.479 1029.08 267.157C1030.1 269.872 1029.34 275.422 1027.74 277.782C1026.03 277.813 1024.07 277.487 1023.05 278.324C1023.6 280.055 1026.25 281.57 1028.09 283.42C1021.67 283.403 1016.49 273.879 1010.15 275.398C1008.99 275.676 1007.08 275.602 1005.83 275.499C1002.45 273.038 1004.07 272.067 1001.35 270.269C999.912 270.722 1000.07 270.674 998.743 271.35C997.016 264.65 994.812 255.996 992.418 249.612L991.634 249.111C989.736 253.069 993.336 252.908 988.756 257.035C987.44 259.842 990.415 264.983 988.989 266.575L988.315 265.971C983.931 269.187 987.948 271.14 985.976 275.126C983.974 275.098 984.703 275.134 982.713 274.14C978.965 274.529 974.263 275.647 970.815 277.22C970.154 276.694 969.964 276.48 969.15 276.22C968.476 277.612 967.191 280.696 966.205 281.576L966.021 280.859L964.962 281.971C963.027 281.06 963.162 281.102 961.747 279.469C961.306 274.724 964.209 276.825 964.95 272.616C961.57 269.188 964.252 268.041 962.837 264.186C961.472 266.317 962.372 265.66 960.296 266.521C952.863 258.291 958.141 254.898 951.516 249.452C953.634 250.041 953.72 249.994 955.82 250.044Z" fill="#929191" fill-opacity="0.0196078"/>
<path d="M139.939 684.275C149.072 692.008 161.642 701.64 172.002 707.647C167.752 725.636 162.565 741.452 167.029 759.833C145.08 741.011 132.746 725.979 115.164 703.134C121.167 706.495 127.546 701.113 129.948 695.731C130.932 695.149 130.78 695.119 131.567 694.2C130.522 693.257 130.982 693.753 130.17 692.725C132.758 688.739 135.157 691.935 138.096 689.884C139.729 687.796 139.588 687.036 139.939 684.275Z" fill="black" fill-opacity="0.972549"/>
<path d="M1003.68 302.685C1004.61 303.549 1005.61 304.393 1006.56 305.228L1007.96 305.116C1008.98 303.746 1009.45 302.713 1011.06 302.288C1014.63 303.479 1011.9 304.408 1013.92 304.647C1018.21 305.155 1020.99 303.593 1024.63 306.5C1026.25 303.364 1025.97 303.319 1028.61 302.229C1029.56 318.741 1031.32 338.54 1033.91 354.731L1030.39 358.816C1016.92 352.13 1009.16 348.768 994.493 344.875C996.734 335.431 1000.02 328.362 1003.11 319.387C1004.25 316.067 1003.77 306.667 1003.68 302.685Z" fill="black" fill-opacity="0.956863"/>
<path d="M463.902 72.9121L464.563 71.7598C465.846 72.2018 465.317 71.8045 466.097 73.0187C464.866 78.143 477.536 96.9928 480.079 102.959C480.357 103.381 480.635 103.802 480.913 104.224C484.327 110.89 486.729 115.747 489.568 122.738C488.97 124.829 488.851 126.334 487.168 127.599C483.139 128.954 480.692 126.837 476.138 126.526C472.996 126.188 448.767 117.203 443.779 115.391C443.584 113.805 442.645 114.204 442.605 111.597C454.703 110.832 453.675 107.419 463.01 104.099C467.343 94.5344 466.052 84.3977 463.977 74.4962L463.902 72.9121Z" fill="#0F0E0E" fill-opacity="0.717647"/>
<path d="M521.987 84.28C523.672 82.0874 524.65 81.2289 525.209 78.6174C530.783 99.5123 537.955 116.821 545.08 137.148L516.329 111.256C509.931 105.443 503.947 98.9937 496.68 94.4535C498.991 94.1571 499.989 93.9955 502.229 93.3972C506.093 90.2824 502.046 88.4186 508.702 85.4158C511.161 85.7159 510.55 85.7734 512.833 87.4934C515.902 86.4745 518.955 85.403 521.987 84.28Z" fill="#010101" fill-opacity="0.933333"/>
<path d="M623.62 113.101C622.959 111.335 622.708 111.288 623.21 109.549C625.108 109.229 625.145 109.394 626.522 108.122C626.486 107.055 626.431 106.029 626.375 104.964L627.184 104.484C628.2 105.529 628.108 105.717 629.321 106.258L629.21 105.201L628.457 104.29C628.996 103.719 642.657 98.2529 645.902 96.3217C646.404 95.1791 646.294 95.1944 646.288 93.9429C648.027 91.8157 648.731 91.6853 651.29 90.4294C653.041 90.9646 653.292 91.4153 654.652 92.6527C655.233 94.6739 655.117 95.0689 654.829 97.0693C656.672 102.121 661.895 109.24 665.581 113.188C665.6 113.216 665.612 113.246 665.63 113.275L665.734 114.494C665.967 117.51 665.483 118.649 664.663 121.531C665.875 122.312 670.498 120.966 672.837 120.783C672.427 122.923 672.206 124.545 671.368 126.577C671.159 125.602 670.963 124.623 670.786 123.641C667.161 122.166 658.515 128.366 654.003 128.77C650.396 129.093 648.816 127.023 645.865 127.56L644.757 128.276L642.718 126.946L644.677 124.811C645.926 118.531 634.231 115.464 629.713 113.484C628.372 112.899 627.214 114.402 626.4 115.172C625.463 114.523 624.532 113.788 623.62 113.101Z" fill="#575757" fill-opacity="0.215686"/>
<path d="M965.617 284.069C967.276 283.151 967.264 282.815 968.054 281.1C970.815 279.092 972.217 280.1 974.556 279.551C979.069 278.496 979.222 274.775 985.002 275.728C987.996 278.416 985.994 282.146 985.645 286.128C988.1 286.416 988.566 286.353 990.39 288.008L990.035 290.828C984.469 290.179 983.306 300.884 983.722 304.802L984.084 305.252C983.08 307.703 982.4 310.251 980.251 311.699L978.75 310.753C974.489 312.894 970.601 311.748 967.178 313.378C966.884 314.916 966.449 316.848 966.284 318.366L966.449 319.297L966.051 320.233L965.035 320.257L963.4 318.169C967.796 313.09 966.866 288.054 961.116 285.305L961.073 284.225C962.843 283.372 963.302 283.826 965.617 284.069Z" fill="#605F5F" fill-opacity="0.290196"/>
<path d="M521.897 59.5404L522.254 58.3501C522.321 60.6506 522.327 63.4275 522.543 65.6789C520.88 69.1366 516.088 68.58 514.105 71.0084C513.348 73.4925 512.907 77.3874 511.583 78.7963C510.165 79.0841 509.309 79.2231 507.871 79.3755L507.037 80.1905C503.27 83.8233 501.595 83.3004 496.352 83.3476C491.466 83.391 486.616 83.0077 481.728 83.0677C478.008 80.3375 470.005 75.1886 466.097 73.0186C465.317 71.8044 465.846 72.2018 464.563 71.7597L463.902 72.9121L463.724 70.5149C470.821 68.7821 483.774 71.7199 487.775 64.2602C490.056 67.1374 491.856 66.4577 492.945 69.2486C492.146 70.9692 492.068 70.2522 492.419 71.6354L491.583 73.9824L492.271 74.5065C494.996 73.7766 495.106 73.378 497.27 71.4995C500.177 73.7748 503.1 76.0293 506.04 78.2624C506.399 71.4958 505.665 70.0691 503.412 63.6289L504.535 62.2286C507.549 62.907 508.262 67.3015 512.276 67.7326C514.177 66.5086 514.5 63.8885 515.839 61.3579C516.242 63.5175 516.204 64.6974 518.246 65.5338C521.077 63.6522 517.86 63.2211 521.897 59.5404Z" fill="#515151" fill-opacity="0.247059"/>
<path d="M672.157 113.544C673.645 115.348 676.597 118.712 677.319 120.829C681.011 131.66 678.134 144.495 676.566 155.659C671.257 150.783 665.82 145.646 660.371 140.954C660.169 132.171 656.88 132.247 649.649 132.155L644.757 128.276L645.865 127.56C648.816 127.023 650.396 129.093 654.003 128.77C658.515 128.366 667.161 122.166 670.786 123.641C670.963 124.623 671.159 125.602 671.368 126.577C672.206 124.545 672.427 122.923 672.837 120.783L672.776 120.156C672.947 116.284 670.859 117.792 672.157 113.544Z" fill="black" fill-opacity="0.611765"/>
<path d="M922.81 165.586L923.502 168.455C934.114 172.837 931.009 162.701 942.178 170.579C943.004 170.63 944.431 170.66 945.184 170.846C942.582 179.129 938.069 194.841 934.799 202.351C929.656 200.742 926.454 202.7 921.531 199.374L922.461 188.629C923.851 190.261 923.974 190.607 925.86 191.691C930.348 190.988 929.576 183.204 926.405 181.212C925.168 182.144 924.17 182.751 922.792 183.459C923.086 176.858 923.037 172.126 922.81 165.586ZM934.934 180.474C937.169 177.462 938.204 174.375 935.669 171.219C933.967 170.672 933.134 170.831 931.37 170.91C929.766 174.133 928.536 177.682 931.334 180.525C933.183 180.828 933.079 180.814 934.934 180.474Z" fill="#343334" fill-opacity="0.619608"/>
<path d="M931.371 170.91C933.134 170.831 933.967 170.672 935.669 171.219C938.204 174.375 937.169 177.463 934.934 180.474C933.079 180.814 933.183 180.828 931.334 180.525C928.536 177.682 929.766 174.133 931.371 170.91Z" fill="black" fill-opacity="0.694118"/>
<path d="M998.742 271.35C1000.07 270.674 999.912 270.722 1001.35 270.269C1004.07 272.067 1002.45 273.038 1005.83 275.499C1007.08 275.602 1008.99 275.675 1010.15 275.398C1016.49 273.879 1021.67 283.403 1028.09 283.42L1028.84 283.242L1028.08 287.115C1025.94 288.997 1017.8 295.14 1015.21 295.315C1013.15 294.09 1012.49 292.585 1011.19 290.553L1010.25 290.481L1007.88 292.599C1005.44 292.206 1005.29 291.52 1002.68 291.917L998.742 271.35Z" fill="#676767" fill-opacity="0.266667"/>
<path d="M235.856 249.705C242.01 252.353 248.961 255.515 255.13 257.917C256.166 262.273 255.916 267.64 253.493 271.507C253.221 271.937 252.939 272.361 252.649 272.779C249.595 273.707 244.509 276.004 242.141 276.19C237.831 271.797 230.435 271.533 228.204 276.378C228.128 276.449 228.052 276.52 227.976 276.592L226.912 276.836C228.278 272.872 228.995 272.315 231.531 268.86C236.734 266.582 242.971 274.644 242.408 260.161C240.286 256.644 240.167 255.892 236.383 254.403C235.059 252.48 233.857 252.505 233.91 250.671L235.856 249.705Z" fill="#1C1B1C" fill-opacity="0.627451"/>
<path d="M1028.08 287.115C1028.37 292.148 1028.55 297.188 1028.61 302.229C1025.97 303.319 1026.25 303.364 1024.63 306.5C1020.99 303.593 1018.21 305.155 1013.92 304.647C1011.9 304.408 1014.63 303.479 1011.06 302.288C1009.45 302.713 1008.98 303.746 1007.96 305.116L1006.56 305.228C1005.61 304.393 1004.61 303.549 1003.68 302.685C1003.48 299.26 1003.01 295.373 1002.68 291.917C1005.29 291.52 1005.44 292.206 1007.88 292.599L1010.25 290.481L1011.19 290.553C1012.49 292.585 1013.15 294.09 1015.21 295.314C1017.8 295.14 1025.94 288.997 1028.08 287.115Z" fill="#0C0B0B" fill-opacity="0.682353"/>
<path d="M977.808 314.688C979.54 315.928 981.304 319.372 982.675 321.433C977.263 333.917 977.103 341.227 962.188 341.233C961.447 340.521 961.582 340.915 961.514 340.179C965.99 333.882 968.078 327.052 966.449 319.297L966.284 318.366L968.054 317.631C972.285 319.011 975.787 319.261 977.808 314.688Z" fill="#242323" fill-opacity="0.623529"/>
<path d="M126.39 671.19C131.074 675.984 134.881 679.83 139.939 684.275C139.588 687.036 139.729 687.796 138.096 689.884C135.157 691.935 132.758 688.739 130.17 692.725C130.982 693.753 130.522 693.257 131.567 694.2C130.781 695.119 130.932 695.149 129.948 695.731C122.049 696.496 122.622 694.488 115.691 693.821L119.061 690.857C124.707 685.879 124.14 677.197 126.39 671.19Z" fill="black" fill-opacity="0.647059"/>
<path d="M522.542 65.679C523.141 69.6308 523.546 72.4694 524.604 76.3312C521.306 78.271 521.617 78.3047 519.973 81.6613L519.292 81.5119L518.78 79.7767C514.292 83.955 508.07 81.6754 504 84.8C501.897 86.5426 499.857 86.245 497.151 85.9867C496.245 85.8979 495.34 85.7968 494.436 85.6836C493.759 86.5359 491.437 89.5607 490.781 90.1185L489.758 89.5362C488.092 87.9185 483.731 84.6482 481.728 83.0678C486.615 83.0078 491.466 83.3911 496.352 83.3476C501.594 83.3005 503.27 83.8234 507.037 80.1906L507.871 79.3756C509.309 79.2231 510.165 79.0841 511.583 78.7964C512.907 77.3874 513.347 73.4926 514.105 71.0085C516.088 68.5801 520.88 69.1366 522.542 65.679Z" fill="black" fill-opacity="0.65098"/>
<path d="M233.183 248.517L235.855 249.705L233.91 250.671C233.857 252.505 235.059 252.48 236.383 254.403C237.995 256.387 238.087 255.891 238.391 258.052C235.735 263.519 226.126 267.074 225.158 276.674L218.069 276.99C217.385 275.797 216.698 275.216 216.954 274.276C218.237 269.56 223.483 266.342 226.286 262.206C228.645 258.724 230.358 250.611 233.183 248.517Z" fill="#343334" fill-opacity="0.403922"/>
<path d="M503.412 63.6288C502.959 59.7212 502.683 51.8166 506.417 49.6228C508.834 51.6051 510.677 51.1412 514.064 52.6056C515.362 53.8505 515.268 54.69 515.533 56.5019L515.626 57.1812C519.291 58.8026 517.759 56.0251 521.078 57.378L521.897 59.5402C517.86 63.221 521.077 63.652 518.246 65.5337C516.203 64.6973 516.242 63.5173 515.838 61.3577C514.5 63.8884 514.177 66.5085 512.276 67.7325C508.262 67.3014 507.549 62.9069 504.535 62.2284L503.412 63.6288Z" fill="#767575" fill-opacity="0.0117647"/>
<path d="M964.961 281.971L966.021 280.859L966.204 281.576C967.19 280.696 968.476 277.612 969.15 276.22C969.964 276.48 970.154 276.694 970.815 277.22C974.262 275.647 978.965 274.529 982.712 274.14C984.702 275.134 983.974 275.098 985.976 275.126C987.947 271.14 983.931 269.187 988.315 265.971L988.988 266.575C990.415 264.983 987.439 259.842 988.756 257.035C993.336 252.908 989.735 253.069 991.633 249.111L992.417 249.612C990.88 260.066 992.411 274.073 990.39 288.008C988.566 286.353 988.1 286.416 985.645 286.128C985.994 282.146 987.996 278.416 985.002 275.728C979.222 274.775 979.069 278.496 974.556 279.551C972.217 280.1 970.815 279.092 968.054 281.1C967.264 282.815 967.276 283.151 965.617 284.069L964.961 281.971Z" fill="#A3A4A3" fill-opacity="0.129412"/>
<path d="M921.531 199.374C926.454 202.7 929.656 200.742 934.8 202.351C931.628 209.556 928.897 214.721 925.431 221.645C923.956 220.962 923.264 220.663 921.874 219.785C920.741 217.573 921.115 213.335 920.857 210.564C920.931 206.637 921.2 203.278 921.531 199.374Z" fill="#0C0B0B" fill-opacity="0.835294"/>
<path d="M944.713 220.038C947.321 215.848 944.492 216.761 946.684 214.983C951.919 219.937 946.868 240.474 955.82 250.044C953.72 249.994 953.634 250.041 951.515 249.452C949.648 251.029 950.45 250.094 949.446 252.743C947.168 245.369 942.857 227.271 944.713 220.038Z" fill="#D1D1D0" fill-opacity="0.01"/>
<path d="M961.116 285.305C966.866 288.054 967.796 313.09 963.4 318.169L960.645 317.108C960.155 307.614 960.161 298.001 959.585 288.511L961.116 285.305Z" fill="#969595" fill-opacity="0.345098"/>
<path d="M466.097 73.0186C470.004 75.1886 478.008 80.3374 481.728 83.0677C483.731 84.6481 488.092 87.9184 489.759 89.5361C483.745 88.9893 480.602 83.3732 474.921 84.1166L474.448 84.694C474.824 87.5571 477.35 90.5678 478.466 93.3624C479.729 96.5274 480.616 100.845 480.913 104.224C480.635 103.802 480.357 103.381 480.079 102.959C477.536 96.9927 464.866 78.1429 466.097 73.0186Z" fill="#FAF9F9" fill-opacity="0.643137"/>
<path d="M255.13 257.917L260.771 260.403C262.661 263.762 263.958 265.277 263.77 268.981C261.796 273.47 256.438 272.783 251.536 276.76L241.923 276.732L242.141 276.19C244.508 276.004 249.595 273.707 252.648 272.779C252.939 272.361 253.221 271.937 253.493 271.507C255.916 267.64 256.166 262.273 255.13 257.917Z" fill="#0C0B0B" fill-opacity="0.764706"/>
<path d="M655.387 92.1746C660.879 99.2816 666.439 106.641 672.158 113.544C670.86 117.792 672.948 116.284 672.776 120.156C670.431 117.77 668.067 115.561 665.63 113.275C665.612 113.246 665.6 113.216 665.581 113.188C661.895 109.24 656.672 102.121 654.829 97.0693C655.117 95.0689 655.234 94.674 654.652 92.6528L655.387 92.1746Z" fill="#A3A4A3" fill-opacity="0.101961"/>
<path d="M115.691 693.821C122.622 694.488 122.049 696.497 129.948 695.731C127.546 701.113 121.167 706.495 115.164 703.134L111.847 699.154C112.385 697.648 113.513 695.952 114.351 694.519L115.691 693.821Z" fill="black" fill-opacity="0.670588"/>
<path d="M236.383 254.403C240.168 255.892 240.286 256.644 242.409 260.161C242.971 274.644 236.734 266.582 231.532 268.86C228.995 272.315 228.278 272.872 226.912 276.836L225.159 276.674C226.127 267.074 235.735 263.519 238.391 258.052C238.087 255.891 237.996 256.387 236.383 254.403Z" fill="#2F2E2F" fill-opacity="0.498039"/>
<path d="M504 84.7998C508.07 81.6752 514.292 83.9549 518.78 79.7765L519.293 81.5118L519.973 81.6612C521.618 78.3045 521.306 78.2708 524.604 76.3311L525.209 78.6174C524.65 81.2289 523.672 82.0873 521.987 84.28C518.955 85.403 515.902 86.4745 512.833 87.4934C510.55 85.7734 511.161 85.7158 508.702 85.4158C502.046 88.4186 506.093 90.2824 502.229 93.3972C499.989 93.9954 498.991 94.1571 496.68 94.4534C498.057 93.1688 498.596 92.7659 500.417 92.1775C503.364 91.2241 502.792 87.9085 504 84.7998Z" fill="#0C0B0B" fill-opacity="0.690196"/>
<path d="M960.645 317.108L963.4 318.169L965.035 320.257L966.052 320.233L966.45 319.297C968.078 327.052 965.99 333.882 961.514 340.179L960.645 317.108Z" fill="#343334" fill-opacity="0.619608"/>
<path d="M626.4 115.172C627.214 114.402 628.372 112.899 629.712 113.484C634.231 115.464 645.926 118.531 644.677 124.811L642.718 126.946C637.721 123.044 631.623 118.902 626.4 115.172Z" fill="#969595" fill-opacity="0.294118"/>
<path d="M949.446 252.743C950.45 250.094 949.648 251.029 951.515 249.452C958.141 254.897 952.862 258.291 960.296 266.521C962.145 270.281 962.757 271.259 961.716 275.472C961.337 272.259 960.535 267.858 957.485 266.203C955.734 267.068 956.224 267.141 955.306 269.681C952.954 263.822 951.093 258.822 949.446 252.743Z" fill="#CAC9C9" fill-opacity="0.12549"/>
<path d="M260.771 260.403L262.427 261.234C275.748 273.205 266.77 274.319 254.509 276.692L251.536 276.76C256.438 272.783 261.796 273.47 263.77 268.981C263.959 265.277 262.661 263.762 260.771 260.403Z" fill="black" fill-opacity="0.862745"/>
<path d="M504 84.7998C502.792 87.9085 503.364 91.2241 500.416 92.1775C498.596 92.7659 498.057 93.1688 496.68 94.4534C494.72 93.1535 492.675 91.5431 490.781 90.1183C491.438 89.5605 493.759 86.5357 494.436 85.6834C495.34 85.7966 496.245 85.8977 497.152 85.9865C499.857 86.2448 501.897 86.5424 504 84.7998Z" fill="black" fill-opacity="0.682353"/>
<path d="M984.084 305.252C985.523 305.149 986.111 304.957 987.476 305.306C986.166 310.936 984.886 316.067 982.676 321.432C981.304 319.371 979.541 315.928 977.808 314.688L977.747 313.622L980.251 311.699C982.4 310.251 983.08 307.703 984.084 305.252Z" fill="#515151" fill-opacity="0.564706"/>
<path d="M960.296 266.521C962.371 265.66 961.471 266.317 962.837 264.186C964.251 268.041 961.569 269.188 964.949 272.616C964.208 276.825 961.306 274.724 961.747 279.469C963.161 281.102 963.027 281.06 964.961 281.971L965.617 284.069C963.302 283.827 962.843 283.372 961.073 284.225L961.116 285.305L959.585 288.511L957.295 275.986L957.791 275.184C960.204 276.119 958.949 275.933 961.716 275.472C962.757 271.259 962.145 270.281 960.296 266.521Z" fill="#CAC9C9" fill-opacity="0.113725"/>
<path d="M966.284 318.366C966.45 316.848 966.884 314.916 967.178 313.378C970.601 311.748 974.489 312.894 978.751 310.753L980.251 311.699L977.747 313.622L977.808 314.688C975.787 319.261 972.285 319.011 968.054 317.631L966.284 318.366Z" fill="#343334" fill-opacity="0.482353"/>
<path d="M984.084 305.252L983.723 304.802C983.306 300.884 984.47 290.179 990.036 290.828C989.595 295.247 988.725 301.056 987.476 305.305C986.111 304.957 985.523 305.149 984.084 305.252Z" fill="#676767" fill-opacity="0.380392"/>
<path d="M922.792 183.459C924.17 182.751 925.168 182.144 926.405 181.212C929.576 183.204 930.348 190.988 925.86 191.691C923.974 190.607 923.851 190.262 922.461 188.629L922.792 183.459Z" fill="#515151" fill-opacity="0.478431"/>
<path d="M955.306 269.681C956.224 267.141 955.734 267.068 957.485 266.203C960.535 267.858 961.337 272.259 961.716 275.472C958.949 275.933 960.204 276.119 957.792 275.184L957.296 275.986L955.306 269.681Z" fill="#A3A4A3" fill-opacity="0.203922"/>
<path d="M227.976 276.592C228.052 276.52 228.127 276.449 228.203 276.378C230.435 271.533 237.831 271.797 242.141 276.19L241.923 276.732L227.976 276.592Z" fill="#343334" fill-opacity="0.623529"/>
<path d="M489.567 122.738L492.342 132.511C486.974 130.709 481.223 128.947 476.138 126.525C480.692 126.836 483.139 128.954 487.168 127.599C488.851 126.334 488.97 124.829 489.567 122.738Z" fill="black" fill-opacity="0.980392"/>
<path d="M649.649 132.155C656.881 132.247 660.169 132.172 660.371 140.954C656.905 137.914 653.25 135.042 649.649 132.155Z" fill="black" fill-opacity="0.682353"/>
<path d="M672.837 120.783C670.498 120.966 665.875 122.312 664.663 121.531C665.484 118.649 665.967 117.51 665.735 114.494L665.631 113.274C668.067 115.561 670.431 117.77 672.776 120.156L672.837 120.783Z" fill="#343334" fill-opacity="0.435294"/>
<path d="M492.945 69.2485C493.928 69.7518 496.455 70.9716 497.27 71.4994C495.106 73.3779 494.996 73.7765 492.271 74.5064L491.583 73.9823L492.419 71.6353C492.068 70.2521 492.146 70.9691 492.945 69.2485Z" fill="#515151" fill-opacity="0.27451"/>
</svg>
