<svg width="118" height="22" viewBox="0 0 118 22" fill="none" xmlns="http://www.w3.org/2000/svg">
<path d="M0 16.8V0.599999H2.78V7.2H11.5V0.599999H14.28V16.8H11.5V9.6H2.78V16.8H0Z" fill="white"/>
<path d="M17.5566 21.6V19.42H20.3366L21.4366 16.78L16.1566 4.8H18.9966L22.7766 13.6H22.8766L26.5166 4.8H29.2366L24.1166 16.8L23.0166 19.4C22.7232 20.0933 22.4032 20.6333 22.0566 21.02C21.7232 21.4067 21.1699 21.6 20.3966 21.6H17.5566Z" fill="white"/>
<path d="M31.4125 21.6V7.54H30.0325V4.8H32.8725V6.7H33.7125C34.1125 6.00667 34.6658 5.48 35.3725 5.12C36.0792 4.74667 36.9258 4.56 37.9125 4.56C39.1258 4.56 40.1525 4.82 40.9925 5.34C41.8458 5.84667 42.4925 6.56667 42.9325 7.5C43.3858 8.43333 43.6125 9.53333 43.6125 10.8C43.6125 12.0667 43.3925 13.1733 42.9525 14.12C42.5258 15.0533 41.8992 15.7733 41.0725 16.28C40.2592 16.7867 39.2792 17.04 38.1325 17.04C37.2258 17.04 36.4325 16.8667 35.7525 16.52C35.0858 16.16 34.5725 15.6533 34.2125 15H34.1325V21.6H31.4125ZM37.4325 14.7C38.5525 14.7 39.4058 14.3533 39.9925 13.66C40.5925 12.9667 40.8925 12.0133 40.8925 10.8C40.8925 9.58667 40.5925 8.63333 39.9925 7.94C39.4058 7.24667 38.5525 6.9 37.4325 6.9C36.4325 6.9 35.6325 7.18667 35.0325 7.76C34.4325 8.33333 34.1325 9.10667 34.1325 10.08V11.52C34.1325 12.4933 34.4325 13.2667 35.0325 13.84C35.6325 14.4133 36.4325 14.7 37.4325 14.7Z" fill="white"/>
<path d="M51.4 17.04C50.1333 17.04 49.0267 16.7867 48.08 16.28C47.1467 15.76 46.4267 15.0267 45.92 14.08C45.4133 13.1333 45.16 12.0267 45.16 10.76C45.16 9.49333 45.4067 8.4 45.9 7.48C46.4067 6.54667 47.12 5.82667 48.04 5.32C48.96 4.81333 50.0467 4.56 51.3 4.56C52.5 4.56 53.5333 4.8 54.4 5.28C55.2667 5.74667 55.9333 6.42 56.4 7.3C56.88 8.16667 57.12 9.2 57.12 10.4V11.4H47.76C47.8667 12.4933 48.2333 13.34 48.86 13.94C49.4867 14.5267 50.3267 14.82 51.38 14.82C52.1533 14.82 52.7867 14.6733 53.28 14.38C53.7733 14.0867 54.1133 13.6467 54.3 13.06H57.06C56.7667 14.3133 56.12 15.2933 55.12 16C54.1333 16.6933 52.8933 17.04 51.4 17.04ZM47.84 9.5H54.52C54.4133 8.62 54.08 7.94667 53.52 7.48C52.96 7 52.22 6.76 51.3 6.76C50.38 6.76 49.62 7 49.02 7.48C48.42 7.94667 48.0267 8.62 47.84 9.5Z" fill="white"/>
<path d="M60.1937 16.8V7.54H58.8137V4.8H61.6537V7.1H62.4937C62.8137 6.31333 63.3204 5.71333 64.0137 5.3C64.7204 4.88667 65.5271 4.68 66.4337 4.68H67.4337V7.02H66.3138C65.1804 7.02 64.3204 7.34667 63.7337 8C63.1604 8.65333 62.8737 9.52667 62.8737 10.62V16.8H60.1937Z" fill="white"/>
<path d="M74.1625 17.04C72.9358 17.04 71.8625 16.7867 70.9425 16.28C70.0225 15.76 69.3025 15.0333 68.7825 14.1C68.2758 13.1667 68.0225 12.0667 68.0225 10.8C68.0225 9.53333 68.2758 8.43333 68.7825 7.5C69.2892 6.56667 70.0025 5.84667 70.9225 5.34C71.8425 4.82 72.9225 4.56 74.1625 4.56C75.6825 4.56 76.9425 4.94 77.9425 5.7C78.9425 6.46 79.5892 7.52667 79.8825 8.9H77.1425C76.9425 8.24667 76.5892 7.75333 76.0825 7.42C75.5892 7.08667 74.9492 6.92 74.1625 6.92C73.1092 6.92 72.2758 7.26 71.6625 7.94C71.0492 8.62 70.7425 9.57333 70.7425 10.8C70.7425 12.0267 71.0492 12.98 71.6625 13.66C72.2758 14.34 73.1092 14.68 74.1625 14.68C75.8158 14.68 76.8292 13.9533 77.2025 12.5H79.9425C79.6758 13.9533 79.0425 15.0733 78.0425 15.86C77.0425 16.6467 75.7492 17.04 74.1625 17.04Z" fill="white"/>
<path d="M85.2903 17.02C83.917 17.02 82.8303 16.68 82.0303 16C81.2436 15.32 80.8503 14.4267 80.8503 13.32C80.8503 12.16 81.2503 11.26 82.0503 10.62C82.8503 9.98 83.997 9.66 85.4903 9.66H89.2903V9.16C89.2903 7.56 88.3836 6.76 86.5703 6.76C85.037 6.76 84.117 7.31333 83.8103 8.42H81.0903C81.317 7.18 81.9036 6.22667 82.8503 5.56C83.8103 4.89333 85.057 4.56 86.5903 4.56C88.3103 4.56 89.6236 4.96 90.5303 5.76C91.437 6.54667 91.8903 7.69333 91.8903 9.2V14.06H93.1903V16.8H90.3703V14.9H89.5303C89.117 15.5667 88.557 16.0867 87.8503 16.46C87.1436 16.8333 86.2903 17.02 85.2903 17.02ZM85.6903 14.9C86.3703 14.9 86.9836 14.7667 87.5303 14.5C88.077 14.2333 88.5037 13.88 88.8103 13.44C89.1303 12.9867 89.2903 12.4867 89.2903 11.94V11.56H85.6303C84.1637 11.56 83.4303 12.1067 83.4303 13.2C83.4303 13.7333 83.6303 14.1533 84.0303 14.46C84.4303 14.7533 84.9836 14.9 85.6903 14.9Z" fill="white"/>
<path d="M95.8234 16.8V7.54H94.4434V4.8H97.2834V7.1H98.1234C98.4434 6.31333 98.9501 5.71333 99.6434 5.3C100.35 4.88667 101.157 4.68 102.063 4.68H103.063V7.02H101.943C100.81 7.02 99.9501 7.34667 99.3634 8C98.7901 8.65333 98.5034 9.52667 98.5034 10.62V16.8H95.8234Z" fill="white"/>
<path d="M109.352 17.04C108.139 17.04 107.106 16.7867 106.252 16.28C105.399 15.76 104.752 15.0333 104.312 14.1C103.872 13.1667 103.652 12.0667 103.652 10.8C103.652 9.53333 103.866 8.43333 104.292 7.5C104.732 6.55333 105.359 5.82667 106.172 5.32C106.999 4.81333 107.979 4.56 109.112 4.56C110.046 4.56 110.846 4.74 111.512 5.1C112.179 5.44667 112.692 5.94667 113.052 6.6H113.132V0H115.852V14.06H117.212V16.8H114.392V14.9H113.552C113.139 15.5933 112.579 16.1267 111.872 16.5C111.179 16.86 110.339 17.04 109.352 17.04ZM109.812 14.7C110.826 14.7 111.632 14.4133 112.232 13.84C112.832 13.2667 113.132 12.4933 113.132 11.52V10.08C113.132 9.10667 112.832 8.33333 112.232 7.76C111.632 7.18667 110.826 6.9 109.812 6.9C108.706 6.9 107.852 7.24667 107.252 7.94C106.666 8.63333 106.372 9.58667 106.372 10.8C106.372 12.0133 106.666 12.9667 107.252 13.66C107.852 14.3533 108.706 14.7 109.812 14.7Z" fill="white"/>
</svg>
